<mxfile host="Electron" modified="2023-07-31T09:12:13.925Z" agent="Mozilla/5.0 (Macintosh; Intel Mac OS X 10_15_7) AppleWebKit/537.36 (KHTML, like Gecko) draw.io/21.6.1 Chrome/112.0.5615.204 Electron/24.6.1 Safari/537.36" etag="qoik3Pad2x6y4kghLP3I" version="21.6.1" type="device" pages="10">
  <diagram id="eKJdqd4EOX9Rdta-vBhV" name="一对一关联">
    <mxGraphModel dx="1233" dy="1253" grid="1" gridSize="10" guides="1" tooltips="1" connect="1" arrows="1" fold="1" page="1" pageScale="1" pageWidth="827" pageHeight="1169" math="0" shadow="0">
      <root>
        <mxCell id="0" />
        <mxCell id="1" parent="0" />
        <mxCell id="ZafRibYOGoRavi8sq0Tk-17" value="&lt;div style=&quot;&quot;&gt;&lt;b style=&quot;background-color: rgb(255, 243, 204);&quot;&gt;员工&lt;/b&gt;&lt;/div&gt;" style="swimlane;fontStyle=0;align=center;verticalAlign=middle;childLayout=stackLayout;horizontal=1;startSize=40;horizontalStack=0;resizeParent=1;resizeParentMax=0;resizeLast=0;collapsible=0;marginBottom=0;html=1;fillColor=#fff2cc;strokeColor=#000000;" parent="1" vertex="1">
          <mxGeometry x="850" y="40" width="140" height="100" as="geometry" />
        </mxCell>
        <mxCell id="ZafRibYOGoRavi8sq0Tk-18" value="姓名&lt;br&gt;&lt;br&gt;性别" style="text;html=1;strokeColor=none;fillColor=none;align=left;verticalAlign=middle;spacingLeft=4;spacingRight=4;overflow=hidden;rotatable=0;points=[[0,0.5],[1,0.5]];portConstraint=eastwest;" parent="ZafRibYOGoRavi8sq0Tk-17" vertex="1">
          <mxGeometry y="40" width="140" height="60" as="geometry" />
        </mxCell>
        <mxCell id="ZafRibYOGoRavi8sq0Tk-24" value="&lt;h1&gt;&lt;font style=&quot;font-size: 17px;&quot;&gt;表示“员工”对象&lt;/font&gt;&lt;/h1&gt;&lt;p style=&quot;font-size: 12px;&quot;&gt;&lt;font style=&quot;font-size: 12px;&quot;&gt;第一栏：领域对象名称&lt;/font&gt;&lt;/p&gt;&lt;p style=&quot;font-size: 12px;&quot;&gt;&lt;font style=&quot;font-size: 12px;&quot;&gt;第二栏：列出了对象的属性&lt;/font&gt;&lt;/p&gt;" style="text;html=1;strokeColor=none;fillColor=none;spacing=5;spacingTop=-20;whiteSpace=wrap;overflow=hidden;rounded=0;labelBackgroundColor=#FFFFFF;fontSize=18;" parent="1" vertex="1">
          <mxGeometry x="1040" y="20" width="160" height="140" as="geometry" />
        </mxCell>
        <mxCell id="ZafRibYOGoRavi8sq0Tk-26" value="&lt;span style=&quot;color: rgb(51, 51, 51); font-family: &amp;quot;PingFang SC&amp;quot;, Avenir, Tahoma, Arial, &amp;quot;Lantinghei SC&amp;quot;, &amp;quot;Microsoft Yahei&amp;quot;, &amp;quot;Hiragino Sans GB&amp;quot;, &amp;quot;Microsoft Sans Serif&amp;quot;, &amp;quot;WenQuanYi Micro Hei&amp;quot;, Helvetica, sans-serif; font-size: 16px; text-align: start;&quot;&gt;在领域建模阶段，我们主要关注的是实体和它们之间的关系，可以省略属性&lt;/span&gt;" style="text;html=1;strokeColor=none;fillColor=none;align=center;verticalAlign=middle;whiteSpace=wrap;rounded=0;labelBackgroundColor=#FFFFFF;fontSize=12;" parent="1" vertex="1">
          <mxGeometry x="850" y="170" width="530" height="30" as="geometry" />
        </mxCell>
        <mxCell id="ZafRibYOGoRavi8sq0Tk-27" value="可以通过一条线表示两个概念之间有关系" style="text;html=1;strokeColor=none;fillColor=none;align=center;verticalAlign=middle;whiteSpace=wrap;rounded=0;labelBackgroundColor=#FFFFFF;fontSize=12;" parent="1" vertex="1">
          <mxGeometry x="850" y="210" width="220" height="30" as="geometry" />
        </mxCell>
        <mxCell id="ZafRibYOGoRavi8sq0Tk-28" value="&lt;div style=&quot;&quot;&gt;&lt;b style=&quot;background-color: rgb(255, 243, 204);&quot;&gt;租户&lt;/b&gt;&lt;/div&gt;" style="swimlane;fontStyle=0;align=center;verticalAlign=middle;childLayout=stackLayout;horizontal=1;startSize=40;horizontalStack=0;resizeParent=1;resizeParentMax=0;resizeLast=0;collapsible=0;marginBottom=0;html=1;fillColor=#fff2cc;strokeColor=#000000;" parent="1" vertex="1">
          <mxGeometry x="850" y="260" width="90" height="60" as="geometry" />
        </mxCell>
        <mxCell id="ZafRibYOGoRavi8sq0Tk-30" value="&lt;div style=&quot;&quot;&gt;&lt;b style=&quot;background-color: rgb(255, 243, 204);&quot;&gt;企业&lt;/b&gt;&lt;/div&gt;" style="swimlane;fontStyle=0;align=center;verticalAlign=middle;childLayout=stackLayout;horizontal=1;startSize=40;horizontalStack=0;resizeParent=1;resizeParentMax=0;resizeLast=0;collapsible=0;marginBottom=0;html=1;fillColor=#fff2cc;strokeColor=#000000;" parent="1" vertex="1">
          <mxGeometry x="1030" y="260" width="90" height="60" as="geometry" />
        </mxCell>
        <mxCell id="ZafRibYOGoRavi8sq0Tk-39" value="" style="endArrow=none;html=1;endSize=12;startArrow=none;startSize=14;startFill=0;edgeStyle=orthogonalEdgeStyle;align=center;verticalAlign=bottom;endFill=0;rounded=0;fontSize=12;entryX=0;entryY=0.5;entryDx=0;entryDy=0;" parent="1" target="ZafRibYOGoRavi8sq0Tk-30" edge="1">
          <mxGeometry y="3" relative="1" as="geometry">
            <mxPoint x="940" y="289.68" as="sourcePoint" />
            <mxPoint x="1010" y="289.68" as="targetPoint" />
            <Array as="points" />
          </mxGeometry>
        </mxCell>
        <mxCell id="ZafRibYOGoRavi8sq0Tk-40" value="一个租户只能对应一个企业" style="text;html=1;strokeColor=none;fillColor=none;align=center;verticalAlign=middle;whiteSpace=wrap;rounded=0;labelBackgroundColor=#FFFFFF;fontSize=12;" parent="1" vertex="1">
          <mxGeometry x="850" y="350" width="150" height="30" as="geometry" />
        </mxCell>
        <mxCell id="ZafRibYOGoRavi8sq0Tk-50" value="&lt;div style=&quot;&quot;&gt;&lt;b style=&quot;background-color: rgb(255, 243, 204);&quot;&gt;租户&lt;/b&gt;&lt;/div&gt;" style="swimlane;fontStyle=0;align=center;verticalAlign=middle;childLayout=stackLayout;horizontal=1;startSize=40;horizontalStack=0;resizeParent=1;resizeParentMax=0;resizeLast=0;collapsible=0;marginBottom=0;html=1;fillColor=#fff2cc;strokeColor=#000000;" parent="1" vertex="1">
          <mxGeometry x="850" y="390" width="90" height="60" as="geometry" />
        </mxCell>
        <mxCell id="ZafRibYOGoRavi8sq0Tk-51" value="&lt;div style=&quot;&quot;&gt;&lt;b style=&quot;background-color: rgb(255, 243, 204);&quot;&gt;企业&lt;/b&gt;&lt;/div&gt;" style="swimlane;fontStyle=0;align=center;verticalAlign=middle;childLayout=stackLayout;horizontal=1;startSize=40;horizontalStack=0;resizeParent=1;resizeParentMax=0;resizeLast=0;collapsible=0;marginBottom=0;html=1;fillColor=#fff2cc;strokeColor=#000000;" parent="1" vertex="1">
          <mxGeometry x="1030" y="390" width="90" height="60" as="geometry" />
        </mxCell>
        <mxCell id="ZafRibYOGoRavi8sq0Tk-52" value="" style="endArrow=none;html=1;endSize=12;startArrow=none;startSize=14;startFill=0;edgeStyle=orthogonalEdgeStyle;align=center;verticalAlign=bottom;endFill=0;rounded=0;fontSize=12;entryX=0;entryY=0.5;entryDx=0;entryDy=0;" parent="1" target="ZafRibYOGoRavi8sq0Tk-51" edge="1">
          <mxGeometry y="3" relative="1" as="geometry">
            <mxPoint x="940" y="419.68000000000006" as="sourcePoint" />
            <mxPoint x="1010" y="419.68" as="targetPoint" />
            <Array as="points" />
          </mxGeometry>
        </mxCell>
        <mxCell id="ZafRibYOGoRavi8sq0Tk-53" value="1" style="edgeLabel;html=1;align=center;verticalAlign=middle;resizable=0;points=[];fontSize=12;" parent="ZafRibYOGoRavi8sq0Tk-52" vertex="1" connectable="0">
          <mxGeometry x="0.2779" relative="1" as="geometry">
            <mxPoint x="23" y="-10" as="offset" />
          </mxGeometry>
        </mxCell>
        <mxCell id="ZafRibYOGoRavi8sq0Tk-54" value="一个企业也只能作为一个租户" style="text;html=1;strokeColor=none;fillColor=none;align=center;verticalAlign=middle;whiteSpace=wrap;rounded=0;labelBackgroundColor=#FFFFFF;fontSize=12;" parent="1" vertex="1">
          <mxGeometry x="850" y="470" width="160" height="30" as="geometry" />
        </mxCell>
        <mxCell id="ZafRibYOGoRavi8sq0Tk-55" value="&lt;div style=&quot;&quot;&gt;&lt;b style=&quot;background-color: rgb(255, 243, 204);&quot;&gt;租户&lt;/b&gt;&lt;/div&gt;" style="swimlane;fontStyle=0;align=center;verticalAlign=middle;childLayout=stackLayout;horizontal=1;startSize=40;horizontalStack=0;resizeParent=1;resizeParentMax=0;resizeLast=0;collapsible=0;marginBottom=0;html=1;fillColor=#fff2cc;strokeColor=#000000;" parent="1" vertex="1">
          <mxGeometry x="850" y="510" width="90" height="60" as="geometry" />
        </mxCell>
        <mxCell id="ZafRibYOGoRavi8sq0Tk-56" value="&lt;div style=&quot;&quot;&gt;&lt;b style=&quot;background-color: rgb(255, 243, 204);&quot;&gt;企业&lt;/b&gt;&lt;/div&gt;" style="swimlane;fontStyle=0;align=center;verticalAlign=middle;childLayout=stackLayout;horizontal=1;startSize=40;horizontalStack=0;resizeParent=1;resizeParentMax=0;resizeLast=0;collapsible=0;marginBottom=0;html=1;fillColor=#fff2cc;strokeColor=#000000;" parent="1" vertex="1">
          <mxGeometry x="1030" y="510" width="90" height="60" as="geometry" />
        </mxCell>
        <mxCell id="ZafRibYOGoRavi8sq0Tk-57" value="" style="endArrow=none;html=1;endSize=12;startArrow=none;startSize=14;startFill=0;edgeStyle=orthogonalEdgeStyle;align=center;verticalAlign=bottom;endFill=0;rounded=0;fontSize=12;entryX=0;entryY=0.5;entryDx=0;entryDy=0;" parent="1" target="ZafRibYOGoRavi8sq0Tk-56" edge="1">
          <mxGeometry y="3" relative="1" as="geometry">
            <mxPoint x="940" y="539.6800000000001" as="sourcePoint" />
            <mxPoint x="1010" y="539.6800000000001" as="targetPoint" />
            <Array as="points" />
          </mxGeometry>
        </mxCell>
        <mxCell id="ZafRibYOGoRavi8sq0Tk-58" value="1" style="edgeLabel;html=1;align=center;verticalAlign=middle;resizable=0;points=[];fontSize=12;" parent="ZafRibYOGoRavi8sq0Tk-57" vertex="1" connectable="0">
          <mxGeometry x="0.2779" relative="1" as="geometry">
            <mxPoint x="23" y="-10" as="offset" />
          </mxGeometry>
        </mxCell>
        <mxCell id="ZafRibYOGoRavi8sq0Tk-59" value="1" style="edgeLabel;html=1;align=center;verticalAlign=middle;resizable=0;points=[];fontSize=12;" parent="ZafRibYOGoRavi8sq0Tk-57" vertex="1" connectable="0">
          <mxGeometry x="-0.3579" y="1" relative="1" as="geometry">
            <mxPoint x="-19" y="-9" as="offset" />
          </mxGeometry>
        </mxCell>
        <mxCell id="ZafRibYOGoRavi8sq0Tk-60" value="租户和企业具有一对一的关系" style="text;html=1;strokeColor=none;fillColor=none;align=center;verticalAlign=middle;whiteSpace=wrap;rounded=0;labelBackgroundColor=#FFFFFF;fontSize=12;fontStyle=1" parent="1" vertex="1">
          <mxGeometry x="850" y="590" width="160" height="30" as="geometry" />
        </mxCell>
      </root>
    </mxGraphModel>
  </diagram>
  <diagram id="zCrW9vmhZPZA1GzhwRUS" name="一对多关联">
    <mxGraphModel dx="1233" dy="1253" grid="1" gridSize="10" guides="1" tooltips="1" connect="1" arrows="1" fold="1" page="1" pageScale="1" pageWidth="827" pageHeight="1169" math="0" shadow="0">
      <root>
        <mxCell id="0" />
        <mxCell id="1" parent="0" />
        <mxCell id="GxBRG-Lg1LjdzrbR3iQc-1" value="&lt;div style=&quot;&quot;&gt;&lt;b style=&quot;background-color: rgb(255, 243, 204);&quot;&gt;租户&lt;/b&gt;&lt;/div&gt;" style="swimlane;fontStyle=0;align=center;verticalAlign=middle;childLayout=stackLayout;horizontal=1;startSize=40;horizontalStack=0;resizeParent=1;resizeParentMax=0;resizeLast=0;collapsible=0;marginBottom=0;html=1;fillColor=#fff2cc;strokeColor=#000000;" parent="1" vertex="1">
          <mxGeometry x="840" y="120" width="90" height="60" as="geometry" />
        </mxCell>
        <mxCell id="GxBRG-Lg1LjdzrbR3iQc-2" value="&lt;div style=&quot;&quot;&gt;&lt;b style=&quot;background-color: rgb(255, 243, 204);&quot;&gt;企业&lt;/b&gt;&lt;/div&gt;" style="swimlane;fontStyle=0;align=center;verticalAlign=middle;childLayout=stackLayout;horizontal=1;startSize=40;horizontalStack=0;resizeParent=1;resizeParentMax=0;resizeLast=0;collapsible=0;marginBottom=0;html=1;fillColor=#fff2cc;strokeColor=#000000;" parent="1" vertex="1">
          <mxGeometry x="1020" y="120" width="90" height="60" as="geometry" />
        </mxCell>
        <mxCell id="GxBRG-Lg1LjdzrbR3iQc-3" value="" style="endArrow=none;html=1;endSize=12;startArrow=none;startSize=14;startFill=0;edgeStyle=orthogonalEdgeStyle;align=center;verticalAlign=bottom;endFill=0;rounded=0;fontSize=12;entryX=0;entryY=0.5;entryDx=0;entryDy=0;" parent="1" target="GxBRG-Lg1LjdzrbR3iQc-2" edge="1">
          <mxGeometry y="3" relative="1" as="geometry">
            <mxPoint x="930" y="149.68000000000006" as="sourcePoint" />
            <mxPoint x="1000" y="149.68000000000006" as="targetPoint" />
            <Array as="points" />
          </mxGeometry>
        </mxCell>
        <mxCell id="GxBRG-Lg1LjdzrbR3iQc-4" value="1" style="edgeLabel;html=1;align=center;verticalAlign=middle;resizable=0;points=[];fontSize=12;" parent="GxBRG-Lg1LjdzrbR3iQc-3" vertex="1" connectable="0">
          <mxGeometry x="0.2779" relative="1" as="geometry">
            <mxPoint x="23" y="-10" as="offset" />
          </mxGeometry>
        </mxCell>
        <mxCell id="GxBRG-Lg1LjdzrbR3iQc-5" value="1" style="edgeLabel;html=1;align=center;verticalAlign=middle;resizable=0;points=[];fontSize=12;" parent="GxBRG-Lg1LjdzrbR3iQc-3" vertex="1" connectable="0">
          <mxGeometry x="-0.3579" y="1" relative="1" as="geometry">
            <mxPoint x="-19" y="-9" as="offset" />
          </mxGeometry>
        </mxCell>
        <mxCell id="z7-Pcsw1CjU6YSUeihJI-1" value="一个开发中心只能属于一个企业&lt;br&gt;&lt;br&gt;一个企业可以有多个开发中心" style="text;html=1;strokeColor=none;fillColor=none;align=left;verticalAlign=middle;whiteSpace=wrap;rounded=0;labelBackgroundColor=#FFFFFF;fontSize=12;" parent="1" vertex="1">
          <mxGeometry x="840" y="10" width="180" height="50" as="geometry" />
        </mxCell>
        <mxCell id="z7-Pcsw1CjU6YSUeihJI-2" value="&lt;div style=&quot;&quot;&gt;&lt;b style=&quot;background-color: rgb(255, 243, 204);&quot;&gt;开发中心&lt;/b&gt;&lt;/div&gt;" style="swimlane;fontStyle=0;align=center;verticalAlign=middle;childLayout=stackLayout;horizontal=1;startSize=40;horizontalStack=0;resizeParent=1;resizeParentMax=0;resizeLast=0;collapsible=0;marginBottom=0;html=1;fillColor=#fff2cc;strokeColor=#000000;" parent="1" vertex="1">
          <mxGeometry x="1020" y="250" width="90" height="60" as="geometry" />
        </mxCell>
        <mxCell id="z7-Pcsw1CjU6YSUeihJI-6" value="" style="endArrow=none;html=1;endSize=12;startArrow=none;startSize=14;startFill=0;edgeStyle=orthogonalEdgeStyle;align=center;verticalAlign=bottom;endFill=0;rounded=0;fontSize=12;" parent="1" edge="1">
          <mxGeometry y="3" relative="1" as="geometry">
            <mxPoint x="1064.58" y="180" as="sourcePoint" />
            <mxPoint x="1064.58" y="250" as="targetPoint" />
          </mxGeometry>
        </mxCell>
        <mxCell id="z7-Pcsw1CjU6YSUeihJI-8" value="1" style="edgeLabel;html=1;align=center;verticalAlign=middle;resizable=0;points=[];fontSize=12;" parent="z7-Pcsw1CjU6YSUeihJI-6" vertex="1" connectable="0">
          <mxGeometry x="-0.6286" y="-1" relative="1" as="geometry">
            <mxPoint x="-14" as="offset" />
          </mxGeometry>
        </mxCell>
        <mxCell id="z7-Pcsw1CjU6YSUeihJI-9" value="*" style="edgeLabel;html=1;align=center;verticalAlign=middle;resizable=0;points=[];fontSize=12;" parent="z7-Pcsw1CjU6YSUeihJI-6" vertex="1" connectable="0">
          <mxGeometry x="0.5619" y="-3" relative="1" as="geometry">
            <mxPoint x="-12" as="offset" />
          </mxGeometry>
        </mxCell>
        <mxCell id="KsrI8KlLcHQdQGVlruSl-1" value="&lt;span style=&quot;font-weight: normal;&quot;&gt;企业和开发中心具有&lt;/span&gt;一对多关联" style="text;html=1;strokeColor=none;fillColor=none;align=center;verticalAlign=middle;whiteSpace=wrap;rounded=0;labelBackgroundColor=#FFFFFF;fontSize=12;fontStyle=1" parent="1" vertex="1">
          <mxGeometry x="840" y="70" width="170" height="30" as="geometry" />
        </mxCell>
      </root>
    </mxGraphModel>
  </diagram>
  <diagram id="PboHr-n8Q_JitkxDRwGd" name="自关联">
    <mxGraphModel dx="1233" dy="1253" grid="1" gridSize="10" guides="1" tooltips="1" connect="1" arrows="1" fold="1" page="1" pageScale="1" pageWidth="827" pageHeight="1169" math="0" shadow="0">
      <root>
        <mxCell id="0" />
        <mxCell id="1" parent="0" />
        <mxCell id="7JxE3brVRAMD8bklHST7-1" value="&lt;div style=&quot;&quot;&gt;&lt;b style=&quot;background-color: rgb(255, 243, 204);&quot;&gt;组织&lt;/b&gt;&lt;/div&gt;" style="swimlane;fontStyle=0;align=center;verticalAlign=middle;childLayout=stackLayout;horizontal=1;startSize=40;horizontalStack=0;resizeParent=1;resizeParentMax=0;resizeLast=0;collapsible=0;marginBottom=0;html=1;fillColor=#fff2cc;strokeColor=#000000;" parent="1" vertex="1">
          <mxGeometry x="840" y="120" width="90" height="60" as="geometry" />
        </mxCell>
        <mxCell id="7JxE3brVRAMD8bklHST7-2" value="" style="html=1;verticalAlign=bottom;labelBackgroundColor=none;endArrow=none;endFill=0;endSize=6;align=left;rounded=0;fontSize=12;" parent="1" edge="1">
          <mxGeometry x="-1" relative="1" as="geometry">
            <mxPoint x="930" y="170" as="sourcePoint" />
            <mxPoint x="884.5" y="120" as="targetPoint" />
            <Array as="points">
              <mxPoint x="970" y="170" />
              <mxPoint x="970" y="120" />
              <mxPoint x="970" y="80" />
              <mxPoint x="885" y="80" />
            </Array>
          </mxGeometry>
        </mxCell>
        <mxCell id="7JxE3brVRAMD8bklHST7-3" value="上级" style="edgeLabel;html=1;align=center;verticalAlign=middle;resizable=0;points=[];fontSize=12;" parent="7JxE3brVRAMD8bklHST7-2" vertex="1" connectable="0">
          <mxGeometry x="0.8588" relative="1" as="geometry">
            <mxPoint x="15" as="offset" />
          </mxGeometry>
        </mxCell>
        <mxCell id="7JxE3brVRAMD8bklHST7-4" value="1" style="edgeLabel;html=1;align=center;verticalAlign=middle;resizable=0;points=[];fontSize=12;" parent="7JxE3brVRAMD8bklHST7-2" vertex="1" connectable="0">
          <mxGeometry x="0.7413" y="-1" relative="1" as="geometry">
            <mxPoint x="-14" y="13" as="offset" />
          </mxGeometry>
        </mxCell>
        <mxCell id="7JxE3brVRAMD8bklHST7-5" value="下级" style="edgeLabel;html=1;align=center;verticalAlign=middle;resizable=0;points=[];fontSize=12;" parent="7JxE3brVRAMD8bklHST7-2" vertex="1" connectable="0">
          <mxGeometry x="-0.8574" y="1" relative="1" as="geometry">
            <mxPoint y="11" as="offset" />
          </mxGeometry>
        </mxCell>
        <mxCell id="7JxE3brVRAMD8bklHST7-6" value="*" style="edgeLabel;html=1;align=center;verticalAlign=middle;resizable=0;points=[];fontSize=12;" parent="7JxE3brVRAMD8bklHST7-2" vertex="1" connectable="0">
          <mxGeometry x="-0.8717" relative="1" as="geometry">
            <mxPoint y="-10" as="offset" />
          </mxGeometry>
        </mxCell>
        <mxCell id="s7Jkz68JyUq1011r5E9f-1" value="&lt;span style=&quot;font-weight: 400;&quot;&gt;一个组织可以有多个组织作为自己的下级；&lt;br&gt;而一个组织只能有一个组织作为自己的上级&lt;/span&gt;" style="text;html=1;strokeColor=none;fillColor=none;align=center;verticalAlign=middle;whiteSpace=wrap;rounded=0;labelBackgroundColor=#FFFFFF;fontSize=12;fontStyle=1" parent="1" vertex="1">
          <mxGeometry x="840" y="10" width="240" height="30" as="geometry" />
        </mxCell>
      </root>
    </mxGraphModel>
  </diagram>
  <diagram id="0S62B54ZqOEtsQokUxjq" name="约束">
    <mxGraphModel dx="1233" dy="1253" grid="1" gridSize="10" guides="1" tooltips="1" connect="1" arrows="1" fold="1" page="1" pageScale="1" pageWidth="827" pageHeight="1169" math="0" shadow="0">
      <root>
        <mxCell id="0" />
        <mxCell id="1" parent="0" />
        <mxCell id="gMYuUShqugn5FP3mbt6--1" value="&lt;span style=&quot;font-weight: 400;&quot;&gt;在 UML 中，用大括号括起来的内容称为“&lt;/span&gt;约束&lt;span style=&quot;font-weight: 400;&quot;&gt;”（constraint）。&lt;br&gt;&lt;br&gt;和一般性的注释不同，凡是约束，必须在程序中的某个地方进行实现。&lt;br&gt;&lt;br&gt;约束也是一种业务规则，应该加进前面讲过的业务规则表。&lt;/span&gt;" style="text;html=1;strokeColor=none;fillColor=none;align=left;verticalAlign=middle;whiteSpace=wrap;rounded=0;labelBackgroundColor=#FFFFFF;fontSize=12;fontStyle=1" parent="1" vertex="1">
          <mxGeometry x="880" y="40" width="380" height="90" as="geometry" />
        </mxCell>
        <mxCell id="tC2B9jiKrhBu8BmsiOUr-1" value="&lt;div style=&quot;&quot;&gt;&lt;b style=&quot;background-color: rgb(255, 243, 204);&quot;&gt;组织&lt;/b&gt;&lt;/div&gt;" style="swimlane;fontStyle=0;align=center;verticalAlign=middle;childLayout=stackLayout;horizontal=1;startSize=40;horizontalStack=0;resizeParent=1;resizeParentMax=0;resizeLast=0;collapsible=0;marginBottom=0;html=1;fillColor=#fff2cc;strokeColor=#000000;" parent="1" vertex="1">
          <mxGeometry x="1140" y="340" width="90" height="60" as="geometry" />
        </mxCell>
        <mxCell id="tC2B9jiKrhBu8BmsiOUr-2" value="" style="html=1;verticalAlign=bottom;labelBackgroundColor=none;endArrow=none;endFill=0;endSize=6;align=left;rounded=0;fontSize=12;" parent="1" edge="1">
          <mxGeometry x="-1" relative="1" as="geometry">
            <mxPoint x="1230" y="390" as="sourcePoint" />
            <mxPoint x="1184.5" y="340" as="targetPoint" />
            <Array as="points">
              <mxPoint x="1270" y="390" />
              <mxPoint x="1270" y="340" />
              <mxPoint x="1270" y="300" />
              <mxPoint x="1185" y="300" />
            </Array>
          </mxGeometry>
        </mxCell>
        <mxCell id="tC2B9jiKrhBu8BmsiOUr-3" value="上级" style="edgeLabel;html=1;align=center;verticalAlign=middle;resizable=0;points=[];fontSize=12;" parent="tC2B9jiKrhBu8BmsiOUr-2" vertex="1" connectable="0">
          <mxGeometry x="0.8588" relative="1" as="geometry">
            <mxPoint x="15" as="offset" />
          </mxGeometry>
        </mxCell>
        <mxCell id="tC2B9jiKrhBu8BmsiOUr-4" value="1" style="edgeLabel;html=1;align=center;verticalAlign=middle;resizable=0;points=[];fontSize=12;" parent="tC2B9jiKrhBu8BmsiOUr-2" vertex="1" connectable="0">
          <mxGeometry x="0.7413" y="-1" relative="1" as="geometry">
            <mxPoint x="-14" y="13" as="offset" />
          </mxGeometry>
        </mxCell>
        <mxCell id="tC2B9jiKrhBu8BmsiOUr-5" value="下级" style="edgeLabel;html=1;align=center;verticalAlign=middle;resizable=0;points=[];fontSize=12;" parent="tC2B9jiKrhBu8BmsiOUr-2" vertex="1" connectable="0">
          <mxGeometry x="-0.8574" y="1" relative="1" as="geometry">
            <mxPoint y="11" as="offset" />
          </mxGeometry>
        </mxCell>
        <mxCell id="tC2B9jiKrhBu8BmsiOUr-6" value="*" style="edgeLabel;html=1;align=center;verticalAlign=middle;resizable=0;points=[];fontSize=12;" parent="tC2B9jiKrhBu8BmsiOUr-2" vertex="1" connectable="0">
          <mxGeometry x="-0.8717" relative="1" as="geometry">
            <mxPoint y="-10" as="offset" />
          </mxGeometry>
        </mxCell>
        <mxCell id="tC2B9jiKrhBu8BmsiOUr-7" value="{&lt;br&gt;- 开发组的上级只能是开发中心&lt;br&gt;- 开发中心和直属部门的上级只能是企业&lt;br&gt;- 企业没有上级&lt;br&gt;- 开发组和直属部门没有下级&lt;br&gt;}" style="shape=note2;boundedLbl=1;whiteSpace=wrap;html=1;size=25;verticalAlign=top;align=left;labelBackgroundColor=#f8cecc;strokeColor=#b85450;fontSize=12;fillColor=#f8cecc;" parent="1" vertex="1">
          <mxGeometry x="880" y="160" width="230" height="140" as="geometry" />
        </mxCell>
        <mxCell id="tC2B9jiKrhBu8BmsiOUr-16" value="" style="endArrow=none;dashed=1;html=1;rounded=0;fontSize=12;exitX=0;exitY=0;exitDx=0;exitDy=0;entryX=1;entryY=1;entryDx=0;entryDy=0;entryPerimeter=0;" parent="1" source="tC2B9jiKrhBu8BmsiOUr-1" target="tC2B9jiKrhBu8BmsiOUr-7" edge="1">
          <mxGeometry width="50" height="50" relative="1" as="geometry">
            <mxPoint x="1030" y="350" as="sourcePoint" />
            <mxPoint x="1080" y="300" as="targetPoint" />
          </mxGeometry>
        </mxCell>
      </root>
    </mxGraphModel>
  </diagram>
  <diagram id="CtNPnuui2jBBuhe2npAI" name="多对多关联">
    <mxGraphModel dx="1233" dy="1253" grid="1" gridSize="10" guides="1" tooltips="1" connect="1" arrows="1" fold="1" page="1" pageScale="1" pageWidth="827" pageHeight="1169" math="0" shadow="0">
      <root>
        <mxCell id="0" />
        <mxCell id="1" parent="0" />
        <mxCell id="TD6Hwdg_4bpu-z66QdqW-1" value="&lt;span style=&quot;font-weight: 400;&quot;&gt;一个员工可以担任多个岗位，而一个岗位也可以有多个员工担任&lt;/span&gt;" style="text;html=1;strokeColor=none;fillColor=none;align=left;verticalAlign=middle;whiteSpace=wrap;rounded=0;labelBackgroundColor=#FFFFFF;fontSize=12;fontStyle=1" parent="1" vertex="1">
          <mxGeometry x="880" y="40" width="350" height="40" as="geometry" />
        </mxCell>
        <mxCell id="kfSsYvma4Ugwb_GaOKny-1" value="&lt;div style=&quot;&quot;&gt;&lt;b style=&quot;background-color: rgb(255, 243, 204);&quot;&gt;员工&lt;/b&gt;&lt;/div&gt;" style="swimlane;fontStyle=0;align=center;verticalAlign=middle;childLayout=stackLayout;horizontal=1;startSize=40;horizontalStack=0;resizeParent=1;resizeParentMax=0;resizeLast=0;collapsible=0;marginBottom=0;html=1;fillColor=#fff2cc;strokeColor=#000000;" parent="1" vertex="1">
          <mxGeometry x="880" y="120" width="90" height="60" as="geometry" />
        </mxCell>
        <mxCell id="kfSsYvma4Ugwb_GaOKny-2" value="&lt;div style=&quot;&quot;&gt;&lt;b style=&quot;background-color: rgb(255, 243, 204);&quot;&gt;岗位&lt;/b&gt;&lt;/div&gt;" style="swimlane;fontStyle=0;align=center;verticalAlign=middle;childLayout=stackLayout;horizontal=1;startSize=40;horizontalStack=0;resizeParent=1;resizeParentMax=0;resizeLast=0;collapsible=0;marginBottom=0;html=1;fillColor=#fff2cc;strokeColor=#000000;" parent="1" vertex="1">
          <mxGeometry x="1060" y="120" width="90" height="60" as="geometry" />
        </mxCell>
        <mxCell id="kfSsYvma4Ugwb_GaOKny-3" value="" style="endArrow=none;html=1;endSize=12;startArrow=none;startSize=14;startFill=0;edgeStyle=orthogonalEdgeStyle;align=center;verticalAlign=bottom;endFill=0;rounded=0;fontSize=12;entryX=0;entryY=0.5;entryDx=0;entryDy=0;" parent="1" target="kfSsYvma4Ugwb_GaOKny-2" edge="1">
          <mxGeometry y="3" relative="1" as="geometry">
            <mxPoint x="970" y="149.68000000000006" as="sourcePoint" />
            <mxPoint x="1040" y="149.68000000000006" as="targetPoint" />
            <Array as="points" />
          </mxGeometry>
        </mxCell>
        <mxCell id="kfSsYvma4Ugwb_GaOKny-4" value="*" style="edgeLabel;html=1;align=center;verticalAlign=middle;resizable=0;points=[];fontSize=12;" parent="kfSsYvma4Ugwb_GaOKny-3" vertex="1" connectable="0">
          <mxGeometry x="0.2779" relative="1" as="geometry">
            <mxPoint x="23" y="-10" as="offset" />
          </mxGeometry>
        </mxCell>
        <mxCell id="kfSsYvma4Ugwb_GaOKny-5" value="*" style="edgeLabel;html=1;align=center;verticalAlign=middle;resizable=0;points=[];fontSize=12;" parent="kfSsYvma4Ugwb_GaOKny-3" vertex="1" connectable="0">
          <mxGeometry x="-0.3579" y="1" relative="1" as="geometry">
            <mxPoint x="-19" y="-9" as="offset" />
          </mxGeometry>
        </mxCell>
      </root>
    </mxGraphModel>
  </diagram>
  <diagram id="Tl4KkXlIll4sO9Ry8EDe" name="多重性">
    <mxGraphModel dx="1233" dy="1253" grid="1" gridSize="10" guides="1" tooltips="1" connect="1" arrows="1" fold="1" page="1" pageScale="1" pageWidth="827" pageHeight="1169" math="0" shadow="0">
      <root>
        <mxCell id="0" />
        <mxCell id="1" parent="0" />
        <mxCell id="G1LQhv4VNvP_uFBBkqZF-1" value="&lt;div style=&quot;&quot;&gt;&lt;b style=&quot;background-color: rgb(255, 243, 204);&quot;&gt;组织&lt;/b&gt;&lt;/div&gt;" style="swimlane;fontStyle=0;align=center;verticalAlign=middle;childLayout=stackLayout;horizontal=1;startSize=40;horizontalStack=0;resizeParent=1;resizeParentMax=0;resizeLast=0;collapsible=0;marginBottom=0;html=1;fillColor=#fff2cc;strokeColor=#000000;" parent="1" vertex="1">
          <mxGeometry x="880" y="140" width="90" height="60" as="geometry" />
        </mxCell>
        <mxCell id="G1LQhv4VNvP_uFBBkqZF-2" value="&lt;div style=&quot;&quot;&gt;&lt;b style=&quot;background-color: rgb(255, 243, 204);&quot;&gt;员工&lt;/b&gt;&lt;/div&gt;" style="swimlane;fontStyle=0;align=center;verticalAlign=middle;childLayout=stackLayout;horizontal=1;startSize=40;horizontalStack=0;resizeParent=1;resizeParentMax=0;resizeLast=0;collapsible=0;marginBottom=0;html=1;fillColor=#fff2cc;strokeColor=#000000;" parent="1" vertex="1">
          <mxGeometry x="880" y="270" width="90" height="60" as="geometry" />
        </mxCell>
        <mxCell id="G1LQhv4VNvP_uFBBkqZF-3" value="" style="endArrow=none;html=1;endSize=12;startArrow=none;startSize=14;startFill=0;edgeStyle=orthogonalEdgeStyle;align=center;verticalAlign=bottom;endFill=0;rounded=0;fontSize=12;" parent="1" edge="1">
          <mxGeometry y="3" relative="1" as="geometry">
            <mxPoint x="924.5799999999999" y="199.9999999999999" as="sourcePoint" />
            <mxPoint x="924.5799999999999" y="269.9999999999999" as="targetPoint" />
          </mxGeometry>
        </mxCell>
        <mxCell id="G1LQhv4VNvP_uFBBkqZF-4" value="1" style="edgeLabel;html=1;align=center;verticalAlign=middle;resizable=0;points=[];fontSize=12;" parent="G1LQhv4VNvP_uFBBkqZF-3" vertex="1" connectable="0">
          <mxGeometry x="-0.6286" y="-1" relative="1" as="geometry">
            <mxPoint x="-14" as="offset" />
          </mxGeometry>
        </mxCell>
        <mxCell id="G1LQhv4VNvP_uFBBkqZF-5" value="0.. *" style="edgeLabel;html=1;align=center;verticalAlign=middle;resizable=0;points=[];fontSize=12;" parent="G1LQhv4VNvP_uFBBkqZF-3" vertex="1" connectable="0">
          <mxGeometry x="0.5619" y="-3" relative="1" as="geometry">
            <mxPoint x="-12" as="offset" />
          </mxGeometry>
        </mxCell>
        <mxCell id="1BllLV3mI2M3-9tHFdV4-1" value="&lt;span style=&quot;color: rgb(51, 51, 51); font-family: &amp;quot;PingFang SC&amp;quot;, Avenir, Tahoma, Arial, &amp;quot;Lantinghei SC&amp;quot;, &amp;quot;Microsoft Yahei&amp;quot;, &amp;quot;Hiragino Sans GB&amp;quot;, &amp;quot;Microsoft Sans Serif&amp;quot;, &amp;quot;WenQuanYi Micro Hei&amp;quot;, Helvetica, sans-serif; font-size: 16px; font-weight: 400;&quot;&gt;关联两端的 “1” 或者 “*” 称为“&lt;/span&gt;&lt;span style=&quot;color: rgb(51, 51, 51); font-family: &amp;quot;PingFang SC&amp;quot;, Avenir, Tahoma, Arial, &amp;quot;Lantinghei SC&amp;quot;, &amp;quot;Microsoft Yahei&amp;quot;, &amp;quot;Hiragino Sans GB&amp;quot;, &amp;quot;Microsoft Sans Serif&amp;quot;, &amp;quot;WenQuanYi Micro Hei&amp;quot;, Helvetica, sans-serif; font-size: 16px;&quot;&gt;多重性&lt;/span&gt;&lt;span style=&quot;color: rgb(51, 51, 51); font-family: &amp;quot;PingFang SC&amp;quot;, Avenir, Tahoma, Arial, &amp;quot;Lantinghei SC&amp;quot;, &amp;quot;Microsoft Yahei&amp;quot;, &amp;quot;Hiragino Sans GB&amp;quot;, &amp;quot;Microsoft Sans Serif&amp;quot;, &amp;quot;WenQuanYi Micro Hei&amp;quot;, Helvetica, sans-serif; font-size: 16px; font-weight: 400;&quot;&gt;”&lt;/span&gt;" style="text;html=1;strokeColor=none;fillColor=none;align=left;verticalAlign=middle;whiteSpace=wrap;rounded=0;labelBackgroundColor=#FFFFFF;fontSize=12;fontStyle=1" parent="1" vertex="1">
          <mxGeometry x="880" y="40" width="350" height="40" as="geometry" />
        </mxCell>
        <mxCell id="1BllLV3mI2M3-9tHFdV4-2" value="&lt;span style=&quot;font-weight: 400;&quot;&gt;一个组织可以没有任何员工&lt;/span&gt;" style="text;html=1;strokeColor=none;fillColor=none;align=left;verticalAlign=middle;whiteSpace=wrap;rounded=0;labelBackgroundColor=#FFFFFF;fontSize=12;fontStyle=1" parent="1" vertex="1">
          <mxGeometry x="880" y="100" width="350" height="30" as="geometry" />
        </mxCell>
        <mxCell id="1BllLV3mI2M3-9tHFdV4-3" value="&lt;span style=&quot;font-weight: 400;&quot;&gt;一个员工必须属于一个组织&lt;/span&gt;" style="text;html=1;strokeColor=none;fillColor=none;align=left;verticalAlign=middle;whiteSpace=wrap;rounded=0;labelBackgroundColor=#FFFFFF;fontSize=12;fontStyle=1" parent="1" vertex="1">
          <mxGeometry x="880" y="360" width="350" height="30" as="geometry" />
        </mxCell>
        <mxCell id="1BllLV3mI2M3-9tHFdV4-4" value="&lt;div style=&quot;&quot;&gt;&lt;b style=&quot;background-color: rgb(255, 243, 204);&quot;&gt;组织&lt;/b&gt;&lt;/div&gt;" style="swimlane;fontStyle=0;align=center;verticalAlign=middle;childLayout=stackLayout;horizontal=1;startSize=40;horizontalStack=0;resizeParent=1;resizeParentMax=0;resizeLast=0;collapsible=0;marginBottom=0;html=1;fillColor=#fff2cc;strokeColor=#000000;" parent="1" vertex="1">
          <mxGeometry x="880" y="400" width="90" height="60" as="geometry" />
        </mxCell>
        <mxCell id="1BllLV3mI2M3-9tHFdV4-5" value="&lt;div style=&quot;&quot;&gt;&lt;b style=&quot;background-color: rgb(255, 243, 204);&quot;&gt;员工&lt;/b&gt;&lt;/div&gt;" style="swimlane;fontStyle=0;align=center;verticalAlign=middle;childLayout=stackLayout;horizontal=1;startSize=40;horizontalStack=0;resizeParent=1;resizeParentMax=0;resizeLast=0;collapsible=0;marginBottom=0;html=1;fillColor=#fff2cc;strokeColor=#000000;" parent="1" vertex="1">
          <mxGeometry x="880" y="530" width="90" height="60" as="geometry" />
        </mxCell>
        <mxCell id="1BllLV3mI2M3-9tHFdV4-6" value="" style="endArrow=none;html=1;endSize=12;startArrow=none;startSize=14;startFill=0;edgeStyle=orthogonalEdgeStyle;align=center;verticalAlign=bottom;endFill=0;rounded=0;fontSize=12;" parent="1" edge="1">
          <mxGeometry y="3" relative="1" as="geometry">
            <mxPoint x="924.5799999999999" y="459.9999999999999" as="sourcePoint" />
            <mxPoint x="924.5799999999999" y="529.9999999999999" as="targetPoint" />
          </mxGeometry>
        </mxCell>
        <mxCell id="1BllLV3mI2M3-9tHFdV4-7" value="1.. 1" style="edgeLabel;html=1;align=center;verticalAlign=middle;resizable=0;points=[];fontSize=12;" parent="1BllLV3mI2M3-9tHFdV4-6" vertex="1" connectable="0">
          <mxGeometry x="-0.6286" y="-1" relative="1" as="geometry">
            <mxPoint x="-14" as="offset" />
          </mxGeometry>
        </mxCell>
        <mxCell id="1BllLV3mI2M3-9tHFdV4-8" value="0.. *" style="edgeLabel;html=1;align=center;verticalAlign=middle;resizable=0;points=[];fontSize=12;" parent="1BllLV3mI2M3-9tHFdV4-6" vertex="1" connectable="0">
          <mxGeometry x="0.5619" y="-3" relative="1" as="geometry">
            <mxPoint x="-12" as="offset" />
          </mxGeometry>
        </mxCell>
      </root>
    </mxGraphModel>
  </diagram>
  <diagram id="XbXBLItfMyA_3OYbIASj" name="包">
    <mxGraphModel dx="2060" dy="1253" grid="1" gridSize="10" guides="1" tooltips="1" connect="1" arrows="1" fold="1" page="1" pageScale="1" pageWidth="827" pageHeight="1169" math="0" shadow="0">
      <root>
        <mxCell id="0" />
        <mxCell id="1" parent="0" />
        <mxCell id="snPjxR030Xe6liLqug-N-1" value="包名" style="shape=folder;fontStyle=1;tabWidth=110;tabHeight=30;tabPosition=left;html=1;boundedLbl=1;labelInHeader=1;container=1;collapsible=0;" parent="1" vertex="1">
          <mxGeometry x="110" y="90" width="320" height="150" as="geometry" />
        </mxCell>
        <mxCell id="snPjxR030Xe6liLqug-N-2" value="" style="html=1;strokeColor=none;resizeWidth=1;resizeHeight=1;fillColor=none;part=1;connectable=0;allowArrows=0;deletable=0;" parent="snPjxR030Xe6liLqug-N-1" vertex="1">
          <mxGeometry width="320" height="105" relative="1" as="geometry">
            <mxPoint y="30" as="offset" />
          </mxGeometry>
        </mxCell>
        <mxCell id="SBXXxfCdbEeZYJSACFOQ-1" value="&lt;div style=&quot;&quot;&gt;&lt;b style=&quot;background-color: rgb(255, 243, 204);&quot;&gt;实体 1&lt;/b&gt;&lt;/div&gt;" style="swimlane;fontStyle=0;align=center;verticalAlign=middle;childLayout=stackLayout;horizontal=1;startSize=40;horizontalStack=0;resizeParent=1;resizeParentMax=0;resizeLast=0;collapsible=0;marginBottom=0;html=1;fillColor=#fff2cc;strokeColor=#000000;" parent="snPjxR030Xe6liLqug-N-1" vertex="1">
          <mxGeometry x="25" y="60" width="90" height="60" as="geometry" />
        </mxCell>
        <mxCell id="SBXXxfCdbEeZYJSACFOQ-2" value="&lt;div style=&quot;&quot;&gt;&lt;b style=&quot;background-color: rgb(255, 243, 204);&quot;&gt;实体 2&lt;/b&gt;&lt;/div&gt;" style="swimlane;fontStyle=0;align=center;verticalAlign=middle;childLayout=stackLayout;horizontal=1;startSize=40;horizontalStack=0;resizeParent=1;resizeParentMax=0;resizeLast=0;collapsible=0;marginBottom=0;html=1;fillColor=#fff2cc;strokeColor=#000000;" parent="snPjxR030Xe6liLqug-N-1" vertex="1">
          <mxGeometry x="205" y="60" width="90" height="60" as="geometry" />
        </mxCell>
        <mxCell id="SBXXxfCdbEeZYJSACFOQ-3" value="" style="endArrow=none;html=1;endSize=12;startArrow=none;startSize=14;startFill=0;edgeStyle=orthogonalEdgeStyle;align=center;verticalAlign=bottom;endFill=0;rounded=0;fontSize=12;entryX=0;entryY=0.5;entryDx=0;entryDy=0;" parent="snPjxR030Xe6liLqug-N-1" target="SBXXxfCdbEeZYJSACFOQ-2" edge="1">
          <mxGeometry y="3" relative="1" as="geometry">
            <mxPoint x="115" y="89.68000000000006" as="sourcePoint" />
            <mxPoint x="185" y="89.68000000000006" as="targetPoint" />
            <Array as="points" />
          </mxGeometry>
        </mxCell>
        <mxCell id="SBXXxfCdbEeZYJSACFOQ-4" value="*" style="edgeLabel;html=1;align=center;verticalAlign=middle;resizable=0;points=[];fontSize=12;" parent="SBXXxfCdbEeZYJSACFOQ-3" vertex="1" connectable="0">
          <mxGeometry x="0.2779" relative="1" as="geometry">
            <mxPoint x="23" y="-10" as="offset" />
          </mxGeometry>
        </mxCell>
        <mxCell id="SBXXxfCdbEeZYJSACFOQ-5" value="1" style="edgeLabel;html=1;align=center;verticalAlign=middle;resizable=0;points=[];fontSize=12;" parent="SBXXxfCdbEeZYJSACFOQ-3" vertex="1" connectable="0">
          <mxGeometry x="-0.3579" y="1" relative="1" as="geometry">
            <mxPoint x="-19" y="-9" as="offset" />
          </mxGeometry>
        </mxCell>
      </root>
    </mxGraphModel>
  </diagram>
  <diagram id="7-FejKZ7Ex9qd2OQjWdS" name="包1">
    <mxGraphModel dx="2887" dy="1253" grid="1" gridSize="10" guides="1" tooltips="1" connect="1" arrows="1" fold="1" page="1" pageScale="1" pageWidth="827" pageHeight="1169" math="0" shadow="0">
      <root>
        <mxCell id="0" />
        <mxCell id="1" parent="0" />
        <mxCell id="UTfzfd8ynosnjKluN-is-96" value="租户管理" style="shape=folder;fontStyle=1;tabWidth=110;tabHeight=30;tabPosition=left;html=1;boundedLbl=1;labelInHeader=1;container=1;collapsible=0;fontSize=12;" parent="1" vertex="1">
          <mxGeometry x="-660" y="110" width="180" height="810" as="geometry" />
        </mxCell>
        <mxCell id="UTfzfd8ynosnjKluN-is-97" value="" style="html=1;strokeColor=none;resizeWidth=1;resizeHeight=1;fillColor=none;part=1;connectable=0;allowArrows=0;deletable=0;fontSize=12;" parent="UTfzfd8ynosnjKluN-is-96" vertex="1">
          <mxGeometry width="180" height="567" relative="1" as="geometry">
            <mxPoint y="30" as="offset" />
          </mxGeometry>
        </mxCell>
        <mxCell id="UTfzfd8ynosnjKluN-is-83" value="工时管理" style="shape=folder;fontStyle=1;tabWidth=110;tabHeight=30;tabPosition=left;html=1;boundedLbl=1;labelInHeader=1;container=1;collapsible=0;fontSize=12;movable=0;resizable=0;rotatable=0;deletable=0;editable=0;connectable=0;" parent="1" vertex="1">
          <mxGeometry x="-440" y="940" width="505.01" height="240" as="geometry" />
        </mxCell>
        <mxCell id="UTfzfd8ynosnjKluN-is-84" value="" style="html=1;strokeColor=none;resizeWidth=1;resizeHeight=1;fillColor=none;part=1;connectable=0;allowArrows=0;deletable=0;fontSize=12;" parent="UTfzfd8ynosnjKluN-is-83" vertex="1">
          <mxGeometry width="505.01" height="168" relative="1" as="geometry">
            <mxPoint y="30" as="offset" />
          </mxGeometry>
        </mxCell>
        <mxCell id="UTfzfd8ynosnjKluN-is-57" value="项目管理" style="shape=folder;fontStyle=1;tabWidth=110;tabHeight=30;tabPosition=left;html=1;boundedLbl=1;labelInHeader=1;container=1;collapsible=0;movable=0;resizable=0;rotatable=0;deletable=0;editable=0;connectable=0;" parent="1" vertex="1">
          <mxGeometry x="140" y="110" width="480" height="810" as="geometry" />
        </mxCell>
        <mxCell id="UTfzfd8ynosnjKluN-is-58" value="" style="html=1;strokeColor=none;resizeWidth=1;resizeHeight=1;fillColor=none;part=1;connectable=0;allowArrows=0;deletable=0;" parent="UTfzfd8ynosnjKluN-is-57" vertex="1">
          <mxGeometry width="480" height="567" relative="1" as="geometry">
            <mxPoint y="30" as="offset" />
          </mxGeometry>
        </mxCell>
        <mxCell id="UTfzfd8ynosnjKluN-is-88" value="" style="endArrow=none;html=1;rounded=0;fontSize=12;exitX=1;exitY=0.5;exitDx=0;exitDy=0;" parent="UTfzfd8ynosnjKluN-is-57" source="UTfzfd8ynosnjKluN-is-77" edge="1">
          <mxGeometry x="-0.6667" y="-120" width="50" height="50" relative="1" as="geometry">
            <mxPoint x="280" y="980" as="sourcePoint" />
            <mxPoint x="290" y="496" as="targetPoint" />
            <Array as="points">
              <mxPoint x="290" y="990" />
            </Array>
            <mxPoint as="offset" />
          </mxGeometry>
        </mxCell>
        <mxCell id="UTfzfd8ynosnjKluN-is-89" value="1.. 1" style="edgeLabel;html=1;align=center;verticalAlign=middle;resizable=0;points=[];fontSize=12;" parent="UTfzfd8ynosnjKluN-is-88" vertex="1" connectable="0">
          <mxGeometry x="0.9619" y="-1" relative="1" as="geometry">
            <mxPoint x="-16" y="-3" as="offset" />
          </mxGeometry>
        </mxCell>
        <mxCell id="UTfzfd8ynosnjKluN-is-90" value="0.. *" style="edgeLabel;html=1;align=center;verticalAlign=middle;resizable=0;points=[];fontSize=12;" parent="UTfzfd8ynosnjKluN-is-88" vertex="1" connectable="0">
          <mxGeometry x="-0.9598" y="1" relative="1" as="geometry">
            <mxPoint y="-11" as="offset" />
          </mxGeometry>
        </mxCell>
        <mxCell id="j3blegvHAk-4okBxL-U2-1" value="组织管理" style="shape=folder;fontStyle=1;tabWidth=110;tabHeight=30;tabPosition=left;html=1;boundedLbl=1;labelInHeader=1;container=1;collapsible=0;movable=1;resizable=1;rotatable=1;deletable=1;editable=1;connectable=1;" parent="1" vertex="1">
          <mxGeometry x="-440" y="110" width="550" height="810" as="geometry" />
        </mxCell>
        <mxCell id="j3blegvHAk-4okBxL-U2-2" value="" style="html=1;strokeColor=none;resizeWidth=1;resizeHeight=1;fillColor=none;part=1;connectable=0;allowArrows=0;deletable=0;" parent="j3blegvHAk-4okBxL-U2-1" vertex="1">
          <mxGeometry width="550" height="567" relative="1" as="geometry">
            <mxPoint y="30" as="offset" />
          </mxGeometry>
        </mxCell>
        <mxCell id="UTfzfd8ynosnjKluN-is-14" value="{&lt;br&gt;确定员工上级的逻辑：&lt;br&gt;&lt;br&gt;- 如果员工不是所属组织负责人，则该组织&lt;br&gt;负责人就是员工的上级&lt;br&gt;&lt;br&gt;- 如果员工就是该所属组织的负责人，则该&lt;br&gt;组织的上级组织的负责人就是该员工的上级&lt;br&gt;}" style="shape=note2;boundedLbl=1;whiteSpace=wrap;html=1;size=25;verticalAlign=top;align=left;labelBackgroundColor=#f8cecc;strokeColor=#b85450;fontSize=12;fillColor=#f8cecc;" parent="j3blegvHAk-4okBxL-U2-1" vertex="1">
          <mxGeometry x="30" y="280" width="230" height="170" as="geometry" />
        </mxCell>
        <mxCell id="NPYA4FB846vUabCxVZZ9-2" value="&lt;div style=&quot;&quot;&gt;&lt;b style=&quot;background-color: rgb(255, 243, 204);&quot;&gt;员工&lt;/b&gt;&lt;/div&gt;" style="swimlane;fontStyle=0;align=center;verticalAlign=middle;childLayout=stackLayout;horizontal=1;startSize=40;horizontalStack=0;resizeParent=1;resizeParentMax=0;resizeLast=0;collapsible=0;marginBottom=0;html=1;fillColor=#fff2cc;strokeColor=#000000;" parent="1" vertex="1">
          <mxGeometry x="-150.01" y="540" width="110.01" height="300" as="geometry" />
        </mxCell>
        <mxCell id="NPYA4FB846vUabCxVZZ9-1" value="&lt;div style=&quot;&quot;&gt;&lt;b style=&quot;background-color: rgb(255, 243, 204);&quot;&gt;组织&lt;/b&gt;&lt;/div&gt;" style="swimlane;fontStyle=0;align=center;verticalAlign=middle;childLayout=stackLayout;horizontal=1;startSize=40;horizontalStack=0;resizeParent=1;resizeParentMax=0;resizeLast=0;collapsible=0;marginBottom=0;html=1;fillColor=#fff2cc;strokeColor=#000000;" parent="1" vertex="1">
          <mxGeometry x="-150.01" y="360" width="110.01" height="60" as="geometry" />
        </mxCell>
        <mxCell id="NPYA4FB846vUabCxVZZ9-3" value="" style="endArrow=none;html=1;endSize=12;startArrow=none;startSize=14;startFill=0;edgeStyle=orthogonalEdgeStyle;align=center;verticalAlign=bottom;endFill=0;rounded=0;fontSize=12;entryX=0.25;entryY=0;entryDx=0;entryDy=0;" parent="1" target="NPYA4FB846vUabCxVZZ9-2" edge="1">
          <mxGeometry x="0.1429" y="15" relative="1" as="geometry">
            <mxPoint x="-120.00000000000011" y="420" as="sourcePoint" />
            <mxPoint x="-120.00000000000011" y="490" as="targetPoint" />
            <Array as="points">
              <mxPoint x="-120" y="470" />
              <mxPoint x="-120" y="591" />
            </Array>
            <mxPoint as="offset" />
          </mxGeometry>
        </mxCell>
        <mxCell id="NPYA4FB846vUabCxVZZ9-4" value="1.. 1" style="edgeLabel;html=1;align=center;verticalAlign=middle;resizable=0;points=[];fontSize=12;" parent="NPYA4FB846vUabCxVZZ9-3" vertex="1" connectable="0">
          <mxGeometry x="-0.6286" y="-1" relative="1" as="geometry">
            <mxPoint x="-14" as="offset" />
          </mxGeometry>
        </mxCell>
        <mxCell id="NPYA4FB846vUabCxVZZ9-5" value="0.. *" style="edgeLabel;html=1;align=center;verticalAlign=middle;resizable=0;points=[];fontSize=12;" parent="NPYA4FB846vUabCxVZZ9-3" vertex="1" connectable="0">
          <mxGeometry x="0.5619" y="-3" relative="1" as="geometry">
            <mxPoint x="-12" y="15" as="offset" />
          </mxGeometry>
        </mxCell>
        <mxCell id="UTfzfd8ynosnjKluN-is-16" value="成员" style="edgeLabel;html=1;align=center;verticalAlign=middle;resizable=0;points=[];fontSize=12;" parent="NPYA4FB846vUabCxVZZ9-3" vertex="1" connectable="0">
          <mxGeometry x="0.5363" y="-2" relative="1" as="geometry">
            <mxPoint x="17" y="15" as="offset" />
          </mxGeometry>
        </mxCell>
        <mxCell id="NPYA4FB846vUabCxVZZ9-6" value="" style="endArrow=none;html=1;rounded=0;entryX=1;entryY=0.75;entryDx=0;entryDy=0;" parent="1" target="NPYA4FB846vUabCxVZZ9-1" edge="1">
          <mxGeometry width="50" height="50" relative="1" as="geometry">
            <mxPoint x="-100.00999999999999" y="360" as="sourcePoint" />
            <mxPoint x="-0.009999999999990905" y="410" as="targetPoint" />
            <Array as="points">
              <mxPoint x="-100.00999999999999" y="310" />
              <mxPoint x="-0.009999999999990905" y="310" />
              <mxPoint x="-0.009999999999990905" y="405" />
            </Array>
          </mxGeometry>
        </mxCell>
        <mxCell id="NPYA4FB846vUabCxVZZ9-7" value="0.. *" style="edgeLabel;html=1;align=center;verticalAlign=middle;resizable=0;points=[];" parent="NPYA4FB846vUabCxVZZ9-6" vertex="1" connectable="0">
          <mxGeometry x="0.8732" y="-1" relative="1" as="geometry">
            <mxPoint y="-14" as="offset" />
          </mxGeometry>
        </mxCell>
        <mxCell id="NPYA4FB846vUabCxVZZ9-8" value="下级" style="edgeLabel;html=1;align=center;verticalAlign=middle;resizable=0;points=[];" parent="NPYA4FB846vUabCxVZZ9-6" vertex="1" connectable="0">
          <mxGeometry x="0.8645" y="-1" relative="1" as="geometry">
            <mxPoint y="16" as="offset" />
          </mxGeometry>
        </mxCell>
        <mxCell id="NPYA4FB846vUabCxVZZ9-9" value="上级" style="edgeLabel;html=1;align=center;verticalAlign=middle;resizable=0;points=[];" parent="NPYA4FB846vUabCxVZZ9-6" vertex="1" connectable="0">
          <mxGeometry x="-0.871" relative="1" as="geometry">
            <mxPoint x="20" y="10" as="offset" />
          </mxGeometry>
        </mxCell>
        <mxCell id="NPYA4FB846vUabCxVZZ9-10" value="0.. 1" style="edgeLabel;html=1;align=center;verticalAlign=middle;resizable=0;points=[];" parent="NPYA4FB846vUabCxVZZ9-6" vertex="1" connectable="0">
          <mxGeometry x="-0.9148" y="-1" relative="1" as="geometry">
            <mxPoint x="-21" y="3" as="offset" />
          </mxGeometry>
        </mxCell>
        <mxCell id="NPYA4FB846vUabCxVZZ9-11" value="&lt;div style=&quot;&quot;&gt;&lt;span style=&quot;background-color: rgb(255, 243, 204);&quot;&gt;&lt;b&gt;组织类别&lt;/b&gt;&lt;/span&gt;&lt;/div&gt;" style="swimlane;fontStyle=0;align=center;verticalAlign=middle;childLayout=stackLayout;horizontal=1;startSize=40;horizontalStack=0;resizeParent=1;resizeParentMax=0;resizeLast=0;collapsible=0;marginBottom=0;html=1;fillColor=#fff2cc;strokeColor=#000000;" parent="1" vertex="1">
          <mxGeometry x="-150.01" y="190" width="90" height="60" as="geometry" />
        </mxCell>
        <mxCell id="NPYA4FB846vUabCxVZZ9-12" value="" style="endArrow=none;html=1;rounded=0;exitX=0.112;exitY=-0.014;exitDx=0;exitDy=0;exitPerimeter=0;" parent="1" source="NPYA4FB846vUabCxVZZ9-1" edge="1">
          <mxGeometry width="50" height="50" relative="1" as="geometry">
            <mxPoint x="-140.01" y="310" as="sourcePoint" />
            <mxPoint x="-140.01" y="250" as="targetPoint" />
          </mxGeometry>
        </mxCell>
        <mxCell id="NPYA4FB846vUabCxVZZ9-13" value="0.. *" style="edgeLabel;html=1;align=center;verticalAlign=middle;resizable=0;points=[];" parent="NPYA4FB846vUabCxVZZ9-12" vertex="1" connectable="0">
          <mxGeometry x="-0.6475" relative="1" as="geometry">
            <mxPoint x="-20" y="-10" as="offset" />
          </mxGeometry>
        </mxCell>
        <mxCell id="NPYA4FB846vUabCxVZZ9-14" value="1.. 1" style="edgeLabel;html=1;align=center;verticalAlign=middle;resizable=0;points=[];" parent="NPYA4FB846vUabCxVZZ9-12" vertex="1" connectable="0">
          <mxGeometry x="0.7477" y="-1" relative="1" as="geometry">
            <mxPoint x="-21" as="offset" />
          </mxGeometry>
        </mxCell>
        <mxCell id="ctNPpotcQ1BBfZy_jJzb-1" value="{&lt;br&gt;- 企业&lt;br&gt;- 开发中心&lt;br&gt;- 开发组&lt;br&gt;- 直属部门&lt;br&gt;}" style="shape=note2;boundedLbl=1;whiteSpace=wrap;html=1;size=25;verticalAlign=top;align=left;labelBackgroundColor=#f8cecc;strokeColor=#b85450;fontSize=12;fillColor=#f8cecc;" parent="1" vertex="1">
          <mxGeometry x="-10.009999999999991" y="160" width="80" height="130" as="geometry" />
        </mxCell>
        <mxCell id="ctNPpotcQ1BBfZy_jJzb-2" value="" style="endArrow=none;dashed=1;html=1;rounded=0;exitX=1;exitY=0.5;exitDx=0;exitDy=0;" parent="1" source="NPYA4FB846vUabCxVZZ9-11" edge="1">
          <mxGeometry width="50" height="50" relative="1" as="geometry">
            <mxPoint x="-50.00999999999999" y="219.62" as="sourcePoint" />
            <mxPoint x="-10.009999999999991" y="219.62" as="targetPoint" />
          </mxGeometry>
        </mxCell>
        <mxCell id="HVQpgLcbvoQNNXqxr-C3-1" value="{&lt;br&gt;- 开发组的上级只能是开发中心&lt;br&gt;- 开发中心和直属部门的上级只能是企业&lt;br&gt;- 企业没有上级&lt;br&gt;- 开发组和直属部门没有下级&lt;br&gt;}" style="shape=note2;boundedLbl=1;whiteSpace=wrap;html=1;size=25;verticalAlign=top;align=left;labelBackgroundColor=#f8cecc;strokeColor=#b85450;fontSize=12;fillColor=#f8cecc;" parent="1" vertex="1">
          <mxGeometry x="-410" y="200" width="230" height="140" as="geometry" />
        </mxCell>
        <mxCell id="UTfzfd8ynosnjKluN-is-1" value="" style="endArrow=none;dashed=1;html=1;rounded=0;fontSize=12;exitX=0;exitY=0;exitDx=0;exitDy=0;entryX=1;entryY=1;entryDx=0;entryDy=0;entryPerimeter=0;" parent="1" source="NPYA4FB846vUabCxVZZ9-1" target="HVQpgLcbvoQNNXqxr-C3-1" edge="1">
          <mxGeometry width="50" height="50" relative="1" as="geometry">
            <mxPoint x="-160" y="390" as="sourcePoint" />
            <mxPoint x="-190" y="350" as="targetPoint" />
          </mxGeometry>
        </mxCell>
        <mxCell id="UTfzfd8ynosnjKluN-is-13" value="取上级（）" style="text;html=1;align=center;verticalAlign=middle;resizable=0;points=[];autosize=1;strokeColor=none;fillColor=none;fontSize=12;labelPosition=center;verticalLabelPosition=middle;" parent="1" vertex="1">
          <mxGeometry x="-149" y="606" width="80" height="30" as="geometry" />
        </mxCell>
        <mxCell id="UTfzfd8ynosnjKluN-is-15" value="" style="endArrow=none;dashed=1;html=1;rounded=0;fontSize=12;entryX=1;entryY=1;entryDx=0;entryDy=0;entryPerimeter=0;" parent="1" target="UTfzfd8ynosnjKluN-is-14" edge="1">
          <mxGeometry width="50" height="50" relative="1" as="geometry">
            <mxPoint x="-150" y="610" as="sourcePoint" />
            <mxPoint x="-180" y="650.0000000000001" as="targetPoint" />
          </mxGeometry>
        </mxCell>
        <mxCell id="UTfzfd8ynosnjKluN-is-21" value="" style="endArrow=none;html=1;rounded=0;fontSize=12;exitX=0.903;exitY=0.002;exitDx=0;exitDy=0;exitPerimeter=0;" parent="1" source="NPYA4FB846vUabCxVZZ9-2" edge="1">
          <mxGeometry x="1" y="-253" width="50" height="50" relative="1" as="geometry">
            <mxPoint x="-50" y="490" as="sourcePoint" />
            <mxPoint x="-49.99000000000001" y="420" as="targetPoint" />
            <mxPoint x="61" y="-99" as="offset" />
          </mxGeometry>
        </mxCell>
        <mxCell id="UTfzfd8ynosnjKluN-is-22" value="0.. *" style="edgeLabel;html=1;align=center;verticalAlign=middle;resizable=0;points=[];fontSize=12;" parent="UTfzfd8ynosnjKluN-is-21" vertex="1" connectable="0">
          <mxGeometry x="0.5407" relative="1" as="geometry">
            <mxPoint x="-20" as="offset" />
          </mxGeometry>
        </mxCell>
        <mxCell id="UTfzfd8ynosnjKluN-is-23" value="0.. 1" style="edgeLabel;html=1;align=center;verticalAlign=middle;resizable=0;points=[];fontSize=12;" parent="UTfzfd8ynosnjKluN-is-21" vertex="1" connectable="0">
          <mxGeometry x="-0.6022" y="1" relative="1" as="geometry">
            <mxPoint x="-18" y="13" as="offset" />
          </mxGeometry>
        </mxCell>
        <mxCell id="UTfzfd8ynosnjKluN-is-24" value="负责人" style="edgeLabel;html=1;align=center;verticalAlign=middle;resizable=0;points=[];fontSize=12;" parent="UTfzfd8ynosnjKluN-is-21" vertex="1" connectable="0">
          <mxGeometry x="-0.5363" y="1" relative="1" as="geometry">
            <mxPoint x="22" y="18" as="offset" />
          </mxGeometry>
        </mxCell>
        <mxCell id="UTfzfd8ynosnjKluN-is-25" value="&lt;div style=&quot;&quot;&gt;&lt;span style=&quot;background-color: rgb(255, 243, 204);&quot;&gt;&lt;b&gt;岗位&lt;/b&gt;&lt;/span&gt;&lt;/div&gt;" style="swimlane;fontStyle=0;align=center;verticalAlign=middle;childLayout=stackLayout;horizontal=1;startSize=40;horizontalStack=0;resizeParent=1;resizeParentMax=0;resizeLast=0;collapsible=0;marginBottom=0;html=1;fillColor=#fff2cc;strokeColor=#000000;" parent="1" vertex="1">
          <mxGeometry x="-410" y="700" width="90" height="60" as="geometry" />
        </mxCell>
        <mxCell id="UTfzfd8ynosnjKluN-is-26" value="" style="endArrow=none;html=1;rounded=0;fontSize=12;" parent="1" edge="1">
          <mxGeometry width="50" height="50" relative="1" as="geometry">
            <mxPoint x="-320" y="720" as="sourcePoint" />
            <mxPoint x="-150" y="720" as="targetPoint" />
          </mxGeometry>
        </mxCell>
        <mxCell id="UTfzfd8ynosnjKluN-is-27" value="0.. *" style="edgeLabel;html=1;align=center;verticalAlign=middle;resizable=0;points=[];fontSize=12;" parent="UTfzfd8ynosnjKluN-is-26" vertex="1" connectable="0">
          <mxGeometry x="-0.7729" y="1" relative="1" as="geometry">
            <mxPoint y="-9" as="offset" />
          </mxGeometry>
        </mxCell>
        <mxCell id="UTfzfd8ynosnjKluN-is-28" value="0.. *" style="edgeLabel;html=1;align=center;verticalAlign=middle;resizable=0;points=[];fontSize=12;" parent="UTfzfd8ynosnjKluN-is-26" vertex="1" connectable="0">
          <mxGeometry x="0.6027" y="1" relative="1" as="geometry">
            <mxPoint x="4" y="-9" as="offset" />
          </mxGeometry>
        </mxCell>
        <mxCell id="UTfzfd8ynosnjKluN-is-29" value="- 管理员&lt;br&gt;- 人事人员&lt;br&gt;- 销售人员&lt;br&gt;- ……" style="shape=note2;boundedLbl=1;whiteSpace=wrap;html=1;size=25;verticalAlign=top;align=left;labelBackgroundColor=#f8cecc;strokeColor=#b85450;fontSize=12;fillColor=#f8cecc;" parent="1" vertex="1">
          <mxGeometry x="-405" y="800" width="80" height="100" as="geometry" />
        </mxCell>
        <mxCell id="UTfzfd8ynosnjKluN-is-30" value="" style="endArrow=none;dashed=1;html=1;dashPattern=1 3;strokeWidth=2;rounded=0;fontSize=12;" parent="1" edge="1">
          <mxGeometry x="1" y="122" width="50" height="50" relative="1" as="geometry">
            <mxPoint x="-365.43" y="800" as="sourcePoint" />
            <mxPoint x="-365.43" y="760" as="targetPoint" />
            <mxPoint x="2" y="-20" as="offset" />
          </mxGeometry>
        </mxCell>
        <mxCell id="UTfzfd8ynosnjKluN-is-31" value="&lt;div style=&quot;&quot;&gt;&lt;span style=&quot;background-color: rgb(255, 243, 204);&quot;&gt;&lt;b&gt;客户&lt;/b&gt;&lt;/span&gt;&lt;/div&gt;" style="swimlane;fontStyle=0;align=center;verticalAlign=middle;childLayout=stackLayout;horizontal=1;startSize=40;horizontalStack=0;resizeParent=1;resizeParentMax=0;resizeLast=0;collapsible=0;marginBottom=0;html=1;fillColor=#fff2cc;strokeColor=#000000;" parent="1" vertex="1">
          <mxGeometry x="349" y="295" width="90" height="60" as="geometry" />
        </mxCell>
        <mxCell id="UTfzfd8ynosnjKluN-is-32" value="&lt;div style=&quot;&quot;&gt;&lt;span style=&quot;background-color: rgb(255, 243, 204);&quot;&gt;&lt;b&gt;合同&lt;/b&gt;&lt;/span&gt;&lt;/div&gt;" style="swimlane;fontStyle=0;align=center;verticalAlign=middle;childLayout=stackLayout;horizontal=1;startSize=40;horizontalStack=0;resizeParent=1;resizeParentMax=0;resizeLast=0;collapsible=0;marginBottom=0;html=1;fillColor=#fff2cc;strokeColor=#000000;" parent="1" vertex="1">
          <mxGeometry x="349" y="425" width="90" height="60" as="geometry" />
        </mxCell>
        <mxCell id="UTfzfd8ynosnjKluN-is-33" value="&lt;div style=&quot;&quot;&gt;&lt;span style=&quot;background-color: rgb(255, 243, 204);&quot;&gt;&lt;b&gt;项目&lt;/b&gt;&lt;/span&gt;&lt;/div&gt;" style="swimlane;fontStyle=0;align=center;verticalAlign=middle;childLayout=stackLayout;horizontal=1;startSize=40;horizontalStack=0;resizeParent=1;resizeParentMax=0;resizeLast=0;collapsible=0;marginBottom=0;html=1;fillColor=#fff2cc;strokeColor=#000000;" parent="1" vertex="1">
          <mxGeometry x="349" y="545" width="90" height="60" as="geometry" />
        </mxCell>
        <mxCell id="UTfzfd8ynosnjKluN-is-34" value="{只有销售人员&lt;br&gt;才能作客户经理}" style="shape=note2;boundedLbl=1;whiteSpace=wrap;html=1;size=25;verticalAlign=top;align=left;labelBackgroundColor=#f8cecc;strokeColor=#b85450;fontSize=12;fillColor=#f8cecc;" parent="1" vertex="1">
          <mxGeometry x="469" y="290" width="140" height="70" as="geometry" />
        </mxCell>
        <mxCell id="UTfzfd8ynosnjKluN-is-35" value="" style="endArrow=none;dashed=1;html=1;dashPattern=1 3;strokeWidth=2;rounded=0;fontSize=12;entryX=0;entryY=0.357;entryDx=0;entryDy=0;entryPerimeter=0;" parent="1" target="UTfzfd8ynosnjKluN-is-36" edge="1">
          <mxGeometry width="50" height="50" relative="1" as="geometry">
            <mxPoint x="439" y="445" as="sourcePoint" />
            <mxPoint x="499" y="445" as="targetPoint" />
          </mxGeometry>
        </mxCell>
        <mxCell id="UTfzfd8ynosnjKluN-is-36" value="{只有销售人员&lt;br&gt;才能作合同经理}" style="shape=note2;boundedLbl=1;whiteSpace=wrap;html=1;size=25;verticalAlign=top;align=left;labelBackgroundColor=#f8cecc;strokeColor=#b85450;fontSize=12;fillColor=#f8cecc;" parent="1" vertex="1">
          <mxGeometry x="469" y="420" width="140" height="70" as="geometry" />
        </mxCell>
        <mxCell id="UTfzfd8ynosnjKluN-is-37" value="{只有开发人员&lt;br&gt;才能作项目经理}" style="shape=note2;boundedLbl=1;whiteSpace=wrap;html=1;size=25;verticalAlign=top;align=left;labelBackgroundColor=#f8cecc;strokeColor=#b85450;fontSize=12;fillColor=#f8cecc;" parent="1" vertex="1">
          <mxGeometry x="469" y="535" width="140" height="70" as="geometry" />
        </mxCell>
        <mxCell id="UTfzfd8ynosnjKluN-is-38" value="" style="endArrow=none;dashed=1;html=1;dashPattern=1 3;strokeWidth=2;rounded=0;fontSize=12;entryX=0;entryY=0.5;entryDx=0;entryDy=0;entryPerimeter=0;" parent="1" target="UTfzfd8ynosnjKluN-is-37" edge="1">
          <mxGeometry width="50" height="50" relative="1" as="geometry">
            <mxPoint x="439" y="569.62" as="sourcePoint" />
            <mxPoint x="499" y="569.62" as="targetPoint" />
          </mxGeometry>
        </mxCell>
        <mxCell id="UTfzfd8ynosnjKluN-is-39" value="" style="endArrow=none;dashed=1;html=1;dashPattern=1 3;strokeWidth=2;rounded=0;fontSize=12;entryX=0;entryY=0.5;entryDx=0;entryDy=0;entryPerimeter=0;" parent="1" target="UTfzfd8ynosnjKluN-is-34" edge="1">
          <mxGeometry width="50" height="50" relative="1" as="geometry">
            <mxPoint x="439" y="324.62" as="sourcePoint" />
            <mxPoint x="499" y="324.62" as="targetPoint" />
          </mxGeometry>
        </mxCell>
        <mxCell id="UTfzfd8ynosnjKluN-is-40" value="" style="endArrow=none;html=1;rounded=0;fontSize=12;exitX=0.5;exitY=0;exitDx=0;exitDy=0;" parent="1" source="UTfzfd8ynosnjKluN-is-33" edge="1">
          <mxGeometry width="50" height="50" relative="1" as="geometry">
            <mxPoint x="393.6199999999999" y="545" as="sourcePoint" />
            <mxPoint x="393.6199999999999" y="485" as="targetPoint" />
          </mxGeometry>
        </mxCell>
        <mxCell id="UTfzfd8ynosnjKluN-is-44" value="0.. *" style="edgeLabel;html=1;align=center;verticalAlign=middle;resizable=0;points=[];fontSize=12;" parent="UTfzfd8ynosnjKluN-is-40" vertex="1" connectable="0">
          <mxGeometry x="-0.5539" y="-1" relative="1" as="geometry">
            <mxPoint x="-16" y="3" as="offset" />
          </mxGeometry>
        </mxCell>
        <mxCell id="UTfzfd8ynosnjKluN-is-45" value="1.. 1" style="edgeLabel;html=1;align=center;verticalAlign=middle;resizable=0;points=[];fontSize=12;" parent="UTfzfd8ynosnjKluN-is-40" vertex="1" connectable="0">
          <mxGeometry x="0.6939" y="-2" relative="1" as="geometry">
            <mxPoint x="-17" as="offset" />
          </mxGeometry>
        </mxCell>
        <mxCell id="UTfzfd8ynosnjKluN-is-41" value="" style="endArrow=none;html=1;rounded=0;fontSize=12;exitX=0.5;exitY=0;exitDx=0;exitDy=0;" parent="1" source="UTfzfd8ynosnjKluN-is-32" edge="1">
          <mxGeometry width="50" height="50" relative="1" as="geometry">
            <mxPoint x="393.6199999999999" y="415" as="sourcePoint" />
            <mxPoint x="393.6199999999999" y="355" as="targetPoint" />
          </mxGeometry>
        </mxCell>
        <mxCell id="UTfzfd8ynosnjKluN-is-42" value="1.. 1" style="edgeLabel;html=1;align=center;verticalAlign=middle;resizable=0;points=[];fontSize=12;" parent="UTfzfd8ynosnjKluN-is-41" vertex="1" connectable="0">
          <mxGeometry x="0.6504" y="-1" relative="1" as="geometry">
            <mxPoint x="-16" as="offset" />
          </mxGeometry>
        </mxCell>
        <mxCell id="UTfzfd8ynosnjKluN-is-43" value="0.. *" style="edgeLabel;html=1;align=center;verticalAlign=middle;resizable=0;points=[];fontSize=12;" parent="UTfzfd8ynosnjKluN-is-41" vertex="1" connectable="0">
          <mxGeometry x="-0.6462" y="-1" relative="1" as="geometry">
            <mxPoint x="-16" as="offset" />
          </mxGeometry>
        </mxCell>
        <mxCell id="UTfzfd8ynosnjKluN-is-46" value="&lt;div style=&quot;&quot;&gt;&lt;span style=&quot;background-color: rgb(255, 243, 204);&quot;&gt;&lt;b&gt;项目成员&lt;/b&gt;&lt;/span&gt;&lt;/div&gt;" style="swimlane;fontStyle=0;align=center;verticalAlign=middle;childLayout=stackLayout;horizontal=1;startSize=40;horizontalStack=0;resizeParent=1;resizeParentMax=0;resizeLast=0;collapsible=0;marginBottom=0;html=1;fillColor=#fff2cc;strokeColor=#000000;" parent="1" vertex="1">
          <mxGeometry x="249" y="640" width="110.01" height="135" as="geometry" />
        </mxCell>
        <mxCell id="UTfzfd8ynosnjKluN-is-48" value="&amp;nbsp; 开始时间" style="text;html=1;align=left;verticalAlign=middle;resizable=0;points=[];autosize=1;strokeColor=none;fillColor=none;fontSize=12;" parent="1" vertex="1">
          <mxGeometry x="248" y="682" width="80" height="30" as="geometry" />
        </mxCell>
        <mxCell id="UTfzfd8ynosnjKluN-is-49" value="&amp;nbsp; 结束时间" style="text;html=1;align=left;verticalAlign=middle;resizable=0;points=[];autosize=1;strokeColor=none;fillColor=none;fontSize=12;" parent="1" vertex="1">
          <mxGeometry x="250" y="712" width="80" height="30" as="geometry" />
        </mxCell>
        <mxCell id="UTfzfd8ynosnjKluN-is-50" value="&amp;nbsp; 预计投入百分比" style="text;html=1;align=left;verticalAlign=middle;resizable=0;points=[];autosize=1;strokeColor=none;fillColor=none;fontSize=12;" parent="1" vertex="1">
          <mxGeometry x="250" y="741" width="110" height="30" as="geometry" />
        </mxCell>
        <mxCell id="UTfzfd8ynosnjKluN-is-51" value="{&amp;nbsp;在任意时刻，一个员工的预计投入百分比总和不能大于百分之百}&lt;br&gt;&lt;br&gt;{员工在同一个项目上的时间段不能重叠}" style="shape=note2;boundedLbl=1;whiteSpace=wrap;html=1;size=25;verticalAlign=top;align=left;labelBackgroundColor=#f8cecc;strokeColor=#b85450;fontSize=12;fillColor=#f8cecc;" parent="1" vertex="1">
          <mxGeometry x="180" y="805" width="220" height="90" as="geometry" />
        </mxCell>
        <mxCell id="UTfzfd8ynosnjKluN-is-52" value="" style="endArrow=none;dashed=1;html=1;dashPattern=1 3;strokeWidth=2;rounded=0;fontSize=12;exitX=0.566;exitY=-0.001;exitDx=0;exitDy=0;exitPerimeter=0;" parent="1" source="UTfzfd8ynosnjKluN-is-51" edge="1">
          <mxGeometry width="50" height="50" relative="1" as="geometry">
            <mxPoint x="303.62" y="795" as="sourcePoint" />
            <mxPoint x="303.62" y="775" as="targetPoint" />
          </mxGeometry>
        </mxCell>
        <mxCell id="UTfzfd8ynosnjKluN-is-54" value="" style="endArrow=none;html=1;rounded=0;fontSize=12;entryX=0.5;entryY=1;entryDx=0;entryDy=0;exitX=1;exitY=0.5;exitDx=0;exitDy=0;" parent="1" source="UTfzfd8ynosnjKluN-is-46" target="UTfzfd8ynosnjKluN-is-33" edge="1">
          <mxGeometry width="50" height="50" relative="1" as="geometry">
            <mxPoint x="343" y="730" as="sourcePoint" />
            <mxPoint x="393" y="630" as="targetPoint" />
            <Array as="points">
              <mxPoint x="393" y="708" />
            </Array>
          </mxGeometry>
        </mxCell>
        <mxCell id="UTfzfd8ynosnjKluN-is-55" value="0.. *" style="edgeLabel;html=1;align=center;verticalAlign=middle;resizable=0;points=[];fontSize=12;" parent="UTfzfd8ynosnjKluN-is-54" vertex="1" connectable="0">
          <mxGeometry x="-0.8743" relative="1" as="geometry">
            <mxPoint x="5" y="-11" as="offset" />
          </mxGeometry>
        </mxCell>
        <mxCell id="UTfzfd8ynosnjKluN-is-56" value="1.. 1" style="edgeLabel;html=1;align=center;verticalAlign=middle;resizable=0;points=[];fontSize=12;" parent="UTfzfd8ynosnjKluN-is-54" vertex="1" connectable="0">
          <mxGeometry x="0.737" y="2" relative="1" as="geometry">
            <mxPoint x="-19" y="-3" as="offset" />
          </mxGeometry>
        </mxCell>
        <mxCell id="UTfzfd8ynosnjKluN-is-62" value="" style="endArrow=none;html=1;rounded=0;fontSize=12;" parent="1" edge="1">
          <mxGeometry width="50" height="50" relative="1" as="geometry">
            <mxPoint x="-40" y="740" as="sourcePoint" />
            <mxPoint x="248" y="741" as="targetPoint" />
          </mxGeometry>
        </mxCell>
        <mxCell id="UTfzfd8ynosnjKluN-is-67" value="0.. *" style="edgeLabel;html=1;align=center;verticalAlign=middle;resizable=0;points=[];fontSize=12;" parent="UTfzfd8ynosnjKluN-is-62" vertex="1" connectable="0">
          <mxGeometry x="0.8676" y="1" relative="1" as="geometry">
            <mxPoint y="-10" as="offset" />
          </mxGeometry>
        </mxCell>
        <mxCell id="UTfzfd8ynosnjKluN-is-68" value="1.. 1" style="edgeLabel;html=1;align=center;verticalAlign=middle;resizable=0;points=[];fontSize=12;" parent="UTfzfd8ynosnjKluN-is-62" vertex="1" connectable="0">
          <mxGeometry x="-0.8685" y="2" relative="1" as="geometry">
            <mxPoint y="-8" as="offset" />
          </mxGeometry>
        </mxCell>
        <mxCell id="UTfzfd8ynosnjKluN-is-63" value="" style="endArrow=none;html=1;rounded=0;fontSize=12;entryX=0;entryY=0.75;entryDx=0;entryDy=0;" parent="1" target="UTfzfd8ynosnjKluN-is-33" edge="1">
          <mxGeometry width="50" height="50" relative="1" as="geometry">
            <mxPoint x="-40" y="690" as="sourcePoint" />
            <mxPoint x="320" y="595" as="targetPoint" />
            <Array as="points">
              <mxPoint x="219" y="690" />
              <mxPoint x="219" y="648" />
              <mxPoint x="219" y="618" />
              <mxPoint x="220" y="590" />
            </Array>
          </mxGeometry>
        </mxCell>
        <mxCell id="UTfzfd8ynosnjKluN-is-65" value="项目经理" style="edgeLabel;html=1;align=center;verticalAlign=middle;resizable=0;points=[];fontSize=12;" parent="UTfzfd8ynosnjKluN-is-63" vertex="1" connectable="0">
          <mxGeometry x="-0.9513" y="1" relative="1" as="geometry">
            <mxPoint x="18" y="11" as="offset" />
          </mxGeometry>
        </mxCell>
        <mxCell id="UTfzfd8ynosnjKluN-is-66" value="1.. 1" style="edgeLabel;html=1;align=center;verticalAlign=middle;resizable=0;points=[];fontSize=12;" parent="UTfzfd8ynosnjKluN-is-63" vertex="1" connectable="0">
          <mxGeometry x="-0.932" y="1" relative="1" as="geometry">
            <mxPoint y="-9" as="offset" />
          </mxGeometry>
        </mxCell>
        <mxCell id="UTfzfd8ynosnjKluN-is-64" value="0.. *" style="text;html=1;align=center;verticalAlign=middle;resizable=0;points=[];autosize=1;strokeColor=none;fillColor=none;fontSize=12;" parent="1" vertex="1">
          <mxGeometry x="300" y="565" width="40" height="30" as="geometry" />
        </mxCell>
        <mxCell id="UTfzfd8ynosnjKluN-is-69" value="" style="endArrow=none;html=1;rounded=0;fontSize=12;entryX=0;entryY=0.75;entryDx=0;entryDy=0;" parent="1" target="UTfzfd8ynosnjKluN-is-32" edge="1">
          <mxGeometry width="50" height="50" relative="1" as="geometry">
            <mxPoint x="-40" y="640" as="sourcePoint" />
            <mxPoint x="340" y="470" as="targetPoint" />
            <Array as="points">
              <mxPoint x="190" y="640" />
              <mxPoint x="190" y="540" />
              <mxPoint x="190" y="470" />
            </Array>
          </mxGeometry>
        </mxCell>
        <mxCell id="UTfzfd8ynosnjKluN-is-71" value="0.. *" style="edgeLabel;html=1;align=center;verticalAlign=middle;resizable=0;points=[];fontSize=12;" parent="UTfzfd8ynosnjKluN-is-69" vertex="1" connectable="0">
          <mxGeometry x="0.9146" y="-1" relative="1" as="geometry">
            <mxPoint x="3" y="-11" as="offset" />
          </mxGeometry>
        </mxCell>
        <mxCell id="UTfzfd8ynosnjKluN-is-72" value="1.. 1" style="edgeLabel;html=1;align=center;verticalAlign=middle;resizable=0;points=[];fontSize=12;" parent="UTfzfd8ynosnjKluN-is-69" vertex="1" connectable="0">
          <mxGeometry x="-0.9666" y="2" relative="1" as="geometry">
            <mxPoint x="11" y="-8" as="offset" />
          </mxGeometry>
        </mxCell>
        <mxCell id="UTfzfd8ynosnjKluN-is-73" value="合同经理" style="edgeLabel;html=1;align=center;verticalAlign=middle;resizable=0;points=[];fontSize=12;" parent="UTfzfd8ynosnjKluN-is-69" vertex="1" connectable="0">
          <mxGeometry x="-0.9445" y="1" relative="1" as="geometry">
            <mxPoint x="15" y="11" as="offset" />
          </mxGeometry>
        </mxCell>
        <mxCell id="UTfzfd8ynosnjKluN-is-70" value="" style="endArrow=none;html=1;rounded=0;fontSize=12;entryX=0;entryY=0.75;entryDx=0;entryDy=0;" parent="1" target="UTfzfd8ynosnjKluN-is-31" edge="1">
          <mxGeometry width="50" height="50" relative="1" as="geometry">
            <mxPoint x="-40" y="590" as="sourcePoint" />
            <mxPoint x="309" y="350" as="targetPoint" />
            <Array as="points">
              <mxPoint x="160" y="590" />
              <mxPoint x="160" y="340" />
            </Array>
          </mxGeometry>
        </mxCell>
        <mxCell id="UTfzfd8ynosnjKluN-is-74" value="客户经理" style="edgeLabel;html=1;align=center;verticalAlign=middle;resizable=0;points=[];fontSize=12;" parent="UTfzfd8ynosnjKluN-is-70" vertex="1" connectable="0">
          <mxGeometry x="-0.9447" y="1" relative="1" as="geometry">
            <mxPoint x="12" y="16" as="offset" />
          </mxGeometry>
        </mxCell>
        <mxCell id="UTfzfd8ynosnjKluN-is-75" value="1.. 1" style="edgeLabel;html=1;align=center;verticalAlign=middle;resizable=0;points=[];fontSize=12;" parent="UTfzfd8ynosnjKluN-is-70" vertex="1" connectable="0">
          <mxGeometry x="-0.9163" y="1" relative="1" as="geometry">
            <mxPoint x="-7" y="-9" as="offset" />
          </mxGeometry>
        </mxCell>
        <mxCell id="UTfzfd8ynosnjKluN-is-76" value="0.. *" style="edgeLabel;html=1;align=center;verticalAlign=middle;resizable=0;points=[];fontSize=12;" parent="UTfzfd8ynosnjKluN-is-70" vertex="1" connectable="0">
          <mxGeometry x="0.9494" relative="1" as="geometry">
            <mxPoint x="-3" y="-10" as="offset" />
          </mxGeometry>
        </mxCell>
        <mxCell id="UTfzfd8ynosnjKluN-is-77" value="&lt;div style=&quot;&quot;&gt;&lt;span style=&quot;background-color: rgb(255, 243, 204);&quot;&gt;&lt;b&gt;工时记录&lt;/b&gt;&lt;/span&gt;&lt;/div&gt;" style="swimlane;fontStyle=0;align=center;verticalAlign=middle;childLayout=stackLayout;horizontal=1;startSize=40;horizontalStack=0;resizeParent=1;resizeParentMax=0;resizeLast=0;collapsible=0;marginBottom=0;html=1;fillColor=#fff2cc;strokeColor=#000000;" parent="1" vertex="1">
          <mxGeometry x="-138.99" y="1030" width="110.01" height="135" as="geometry" />
        </mxCell>
        <mxCell id="UTfzfd8ynosnjKluN-is-78" value="&amp;nbsp; 日期" style="text;html=1;align=left;verticalAlign=middle;resizable=0;points=[];autosize=1;strokeColor=none;fillColor=none;fontSize=12;" parent="1" vertex="1">
          <mxGeometry x="-139.99" y="1072" width="50" height="30" as="geometry" />
        </mxCell>
        <mxCell id="UTfzfd8ynosnjKluN-is-79" value="&amp;nbsp; 备注" style="text;html=1;align=left;verticalAlign=middle;resizable=0;points=[];autosize=1;strokeColor=none;fillColor=none;fontSize=12;" parent="1" vertex="1">
          <mxGeometry x="-137.99" y="1102" width="50" height="30" as="geometry" />
        </mxCell>
        <mxCell id="UTfzfd8ynosnjKluN-is-80" value="&amp;nbsp; 工时" style="text;html=1;align=left;verticalAlign=middle;resizable=0;points=[];autosize=1;strokeColor=none;fillColor=none;fontSize=12;" parent="1" vertex="1">
          <mxGeometry x="-137.99" y="1131" width="50" height="30" as="geometry" />
        </mxCell>
        <mxCell id="UTfzfd8ynosnjKluN-is-81" value="{员工只能在被分配的项目上报工时}&lt;br&gt;{只有在项目有效期内才能报工时}&lt;br&gt;{单位为小时，最小粒度为 0.5 小时}" style="shape=note2;boundedLbl=1;whiteSpace=wrap;html=1;size=25;verticalAlign=top;align=left;labelBackgroundColor=#f8cecc;strokeColor=#b85450;fontSize=12;fillColor=#f8cecc;" parent="1" vertex="1">
          <mxGeometry x="-410" y="1072" width="210" height="80" as="geometry" />
        </mxCell>
        <mxCell id="UTfzfd8ynosnjKluN-is-82" value="" style="endArrow=none;dashed=1;html=1;dashPattern=1 3;strokeWidth=2;rounded=0;fontSize=12;" parent="1" edge="1">
          <mxGeometry width="50" height="50" relative="1" as="geometry">
            <mxPoint x="-200" y="1116.58" as="sourcePoint" />
            <mxPoint x="-140" y="1116.58" as="targetPoint" />
          </mxGeometry>
        </mxCell>
        <mxCell id="UTfzfd8ynosnjKluN-is-85" value="" style="endArrow=none;html=1;rounded=0;fontSize=12;entryX=0.5;entryY=1;entryDx=0;entryDy=0;exitX=0.4;exitY=0;exitDx=0;exitDy=0;exitPerimeter=0;" parent="1" source="UTfzfd8ynosnjKluN-is-77" target="NPYA4FB846vUabCxVZZ9-2" edge="1">
          <mxGeometry width="50" height="50" relative="1" as="geometry">
            <mxPoint x="-210" y="1050" as="sourcePoint" />
            <mxPoint x="-210" y="990" as="targetPoint" />
          </mxGeometry>
        </mxCell>
        <mxCell id="UTfzfd8ynosnjKluN-is-86" value="1.. 1" style="edgeLabel;html=1;align=center;verticalAlign=middle;resizable=0;points=[];fontSize=12;" parent="UTfzfd8ynosnjKluN-is-85" vertex="1" connectable="0">
          <mxGeometry x="0.7759" y="-1" relative="1" as="geometry">
            <mxPoint x="-15" as="offset" />
          </mxGeometry>
        </mxCell>
        <mxCell id="UTfzfd8ynosnjKluN-is-87" value="0.. *" style="edgeLabel;html=1;align=center;verticalAlign=middle;resizable=0;points=[];fontSize=12;" parent="UTfzfd8ynosnjKluN-is-85" vertex="1" connectable="0">
          <mxGeometry x="-0.808" relative="1" as="geometry">
            <mxPoint x="-15" as="offset" />
          </mxGeometry>
        </mxCell>
        <mxCell id="UTfzfd8ynosnjKluN-is-91" value="&lt;div style=&quot;&quot;&gt;&lt;span style=&quot;background-color: rgb(255, 243, 204);&quot;&gt;&lt;b&gt;租户&lt;/b&gt;&lt;/span&gt;&lt;/div&gt;" style="swimlane;fontStyle=0;align=center;verticalAlign=middle;childLayout=stackLayout;horizontal=1;startSize=40;horizontalStack=0;resizeParent=1;resizeParentMax=0;resizeLast=0;collapsible=0;marginBottom=0;html=1;fillColor=#fff2cc;strokeColor=#000000;" parent="1" vertex="1">
          <mxGeometry x="-611" y="290" width="90" height="60" as="geometry" />
        </mxCell>
        <mxCell id="UTfzfd8ynosnjKluN-is-92" value="{只有企业才能作为租户}" style="shape=note2;boundedLbl=1;whiteSpace=wrap;html=1;size=25;verticalAlign=top;align=left;labelBackgroundColor=#f8cecc;strokeColor=#b85450;fontSize=12;fillColor=#f8cecc;" parent="1" vertex="1">
          <mxGeometry x="-640" y="190" width="140" height="60" as="geometry" />
        </mxCell>
        <mxCell id="UTfzfd8ynosnjKluN-is-93" value="" style="endArrow=none;dashed=1;html=1;dashPattern=1 3;strokeWidth=2;rounded=0;fontSize=12;entryX=0.5;entryY=1;entryDx=0;entryDy=0;entryPerimeter=0;" parent="1" target="UTfzfd8ynosnjKluN-is-92" edge="1">
          <mxGeometry x="-0.4545" y="80" width="50" height="50" relative="1" as="geometry">
            <mxPoint x="-571" y="290" as="sourcePoint" />
            <mxPoint x="-571" y="260" as="targetPoint" />
            <mxPoint as="offset" />
          </mxGeometry>
        </mxCell>
        <mxCell id="UTfzfd8ynosnjKluN-is-94" value="系统中所有实体都应属于&lt;br&gt;某个租户，以便隔离不同&lt;br&gt;租户的数据；为了简洁，&lt;br&gt;不一一画出关联了" style="shape=note2;boundedLbl=1;whiteSpace=wrap;html=1;size=25;verticalAlign=top;align=left;labelBackgroundColor=#f8cecc;strokeColor=#b85450;fontSize=12;fillColor=#f8cecc;" parent="1" vertex="1">
          <mxGeometry x="-639.25" y="390" width="146.5" height="100" as="geometry" />
        </mxCell>
        <mxCell id="UTfzfd8ynosnjKluN-is-95" value="" style="endArrow=none;dashed=1;html=1;dashPattern=1 3;strokeWidth=2;rounded=0;fontSize=12;" parent="1" edge="1">
          <mxGeometry x="-1" y="251" width="50" height="50" relative="1" as="geometry">
            <mxPoint x="-571" y="390" as="sourcePoint" />
            <mxPoint x="-571" y="350" as="targetPoint" />
            <mxPoint x="1" y="25" as="offset" />
          </mxGeometry>
        </mxCell>
      </root>
    </mxGraphModel>
  </diagram>
  <diagram id="VQjA-WwLs7hdBvu71NTp" name="包2">
    <mxGraphModel dx="2060" dy="1253" grid="1" gridSize="10" guides="1" tooltips="1" connect="1" arrows="1" fold="1" page="1" pageScale="1" pageWidth="827" pageHeight="1169" math="0" shadow="0">
      <root>
        <mxCell id="0" />
        <mxCell id="1" parent="0" />
        <mxCell id="HDccZg4DMNeqlHpPPreh-1" value="" style="shape=folder;fontStyle=1;tabWidth=110;tabHeight=30;tabPosition=left;html=1;boundedLbl=1;labelInHeader=1;container=1;collapsible=0;fontSize=12;fillColor=#dae8fc;strokeColor=#6c8ebf;" parent="1" vertex="1">
          <mxGeometry x="230" y="310" width="150" height="100" as="geometry" />
        </mxCell>
        <mxCell id="HDccZg4DMNeqlHpPPreh-2" value="组织管理" style="html=1;strokeColor=none;resizeWidth=1;resizeHeight=1;fillColor=none;part=1;connectable=0;allowArrows=0;deletable=0;fontSize=12;" parent="HDccZg4DMNeqlHpPPreh-1" vertex="1">
          <mxGeometry width="150" height="70" relative="1" as="geometry">
            <mxPoint y="30" as="offset" />
          </mxGeometry>
        </mxCell>
        <mxCell id="HDccZg4DMNeqlHpPPreh-3" value="" style="shape=folder;fontStyle=1;tabWidth=110;tabHeight=30;tabPosition=left;html=1;boundedLbl=1;labelInHeader=1;container=1;collapsible=0;fontSize=12;fillColor=#dae8fc;strokeColor=#6c8ebf;" parent="1" vertex="1">
          <mxGeometry x="230" y="160" width="150" height="100" as="geometry" />
        </mxCell>
        <mxCell id="HDccZg4DMNeqlHpPPreh-4" value="租户管理" style="html=1;strokeColor=none;resizeWidth=1;resizeHeight=1;fillColor=none;part=1;connectable=0;allowArrows=0;deletable=0;fontSize=12;" parent="HDccZg4DMNeqlHpPPreh-3" vertex="1">
          <mxGeometry width="150" height="70" relative="1" as="geometry">
            <mxPoint y="30" as="offset" />
          </mxGeometry>
        </mxCell>
        <mxCell id="HDccZg4DMNeqlHpPPreh-5" value="" style="shape=folder;fontStyle=1;tabWidth=110;tabHeight=30;tabPosition=left;html=1;boundedLbl=1;labelInHeader=1;container=1;collapsible=0;fontSize=12;fillColor=#dae8fc;strokeColor=#6c8ebf;" parent="1" vertex="1">
          <mxGeometry x="230" y="460" width="150" height="100" as="geometry" />
        </mxCell>
        <mxCell id="HDccZg4DMNeqlHpPPreh-6" value="工时管理" style="html=1;strokeColor=none;resizeWidth=1;resizeHeight=1;fillColor=none;part=1;connectable=0;allowArrows=0;deletable=0;fontSize=12;" parent="HDccZg4DMNeqlHpPPreh-5" vertex="1">
          <mxGeometry width="150" height="70" relative="1" as="geometry">
            <mxPoint y="30" as="offset" />
          </mxGeometry>
        </mxCell>
        <mxCell id="HDccZg4DMNeqlHpPPreh-7" value="" style="shape=folder;fontStyle=1;tabWidth=110;tabHeight=30;tabPosition=left;html=1;boundedLbl=1;labelInHeader=1;container=1;collapsible=0;fontSize=12;fillColor=#dae8fc;strokeColor=#6c8ebf;" parent="1" vertex="1">
          <mxGeometry x="440" y="310" width="150" height="100" as="geometry" />
        </mxCell>
        <mxCell id="HDccZg4DMNeqlHpPPreh-8" value="项目管理" style="html=1;strokeColor=none;resizeWidth=1;resizeHeight=1;fillColor=none;part=1;connectable=0;allowArrows=0;deletable=0;fontSize=12;" parent="HDccZg4DMNeqlHpPPreh-7" vertex="1">
          <mxGeometry width="150" height="70" relative="1" as="geometry">
            <mxPoint y="30" as="offset" />
          </mxGeometry>
        </mxCell>
        <mxCell id="HDccZg4DMNeqlHpPPreh-9" value="" style="html=1;verticalAlign=bottom;labelBackgroundColor=none;endArrow=open;endFill=0;dashed=1;rounded=0;fontSize=12;exitX=0;exitY=0;exitDx=0;exitDy=65;exitPerimeter=0;entryX=0;entryY=0;entryDx=0;entryDy=65;entryPerimeter=0;" parent="1" source="HDccZg4DMNeqlHpPPreh-5" target="HDccZg4DMNeqlHpPPreh-3" edge="1">
          <mxGeometry width="160" relative="1" as="geometry">
            <mxPoint x="120" y="540" as="sourcePoint" />
            <mxPoint x="120" y="170" as="targetPoint" />
            <Array as="points">
              <mxPoint x="170" y="525" />
              <mxPoint x="170" y="225" />
            </Array>
          </mxGeometry>
        </mxCell>
        <mxCell id="HDccZg4DMNeqlHpPPreh-10" value="" style="html=1;verticalAlign=bottom;labelBackgroundColor=none;endArrow=open;endFill=0;dashed=1;rounded=0;fontSize=12;exitX=0.501;exitY=-0.011;exitDx=0;exitDy=0;exitPerimeter=0;entryX=0.5;entryY=1;entryDx=0;entryDy=0;entryPerimeter=0;" parent="1" source="HDccZg4DMNeqlHpPPreh-5" target="HDccZg4DMNeqlHpPPreh-1" edge="1">
          <mxGeometry width="160" relative="1" as="geometry">
            <mxPoint x="170" y="350" as="sourcePoint" />
            <mxPoint x="330" y="350" as="targetPoint" />
          </mxGeometry>
        </mxCell>
        <mxCell id="HDccZg4DMNeqlHpPPreh-11" value="" style="html=1;verticalAlign=bottom;labelBackgroundColor=none;endArrow=open;endFill=0;dashed=1;rounded=0;fontSize=12;exitX=0.501;exitY=-0.011;exitDx=0;exitDy=0;exitPerimeter=0;entryX=0.5;entryY=1;entryDx=0;entryDy=0;entryPerimeter=0;" parent="1" target="HDccZg4DMNeqlHpPPreh-3" edge="1">
          <mxGeometry width="160" relative="1" as="geometry">
            <mxPoint x="303.8100000000001" y="308.9000000000001" as="sourcePoint" />
            <mxPoint x="303.66" y="230" as="targetPoint" />
          </mxGeometry>
        </mxCell>
        <mxCell id="HDccZg4DMNeqlHpPPreh-12" value="" style="html=1;verticalAlign=bottom;labelBackgroundColor=none;endArrow=open;endFill=0;dashed=1;rounded=0;fontSize=12;entryX=0.5;entryY=1;entryDx=0;entryDy=0;entryPerimeter=0;exitX=0;exitY=0;exitDx=150;exitDy=65;exitPerimeter=0;" parent="1" source="HDccZg4DMNeqlHpPPreh-5" edge="1">
          <mxGeometry width="160" relative="1" as="geometry">
            <mxPoint x="380" y="560" as="sourcePoint" />
            <mxPoint x="514.9999999999998" y="410" as="targetPoint" />
            <Array as="points">
              <mxPoint x="515" y="525" />
            </Array>
          </mxGeometry>
        </mxCell>
        <mxCell id="HDccZg4DMNeqlHpPPreh-13" value="" style="html=1;verticalAlign=bottom;labelBackgroundColor=none;endArrow=open;endFill=0;dashed=1;rounded=0;fontSize=12;exitX=0;exitY=0;exitDx=0;exitDy=65;exitPerimeter=0;entryX=0;entryY=0;entryDx=150;entryDy=65;entryPerimeter=0;" parent="1" source="HDccZg4DMNeqlHpPPreh-7" target="HDccZg4DMNeqlHpPPreh-1" edge="1">
          <mxGeometry width="160" relative="1" as="geometry">
            <mxPoint x="170" y="350" as="sourcePoint" />
            <mxPoint x="330" y="350" as="targetPoint" />
          </mxGeometry>
        </mxCell>
        <mxCell id="HDccZg4DMNeqlHpPPreh-14" value="" style="html=1;verticalAlign=bottom;labelBackgroundColor=none;endArrow=open;endFill=0;dashed=1;rounded=0;fontSize=12;entryX=0;entryY=0;entryDx=150;entryDy=65;entryPerimeter=0;exitX=0.483;exitY=-0.007;exitDx=0;exitDy=0;exitPerimeter=0;" parent="1" source="HDccZg4DMNeqlHpPPreh-7" target="HDccZg4DMNeqlHpPPreh-3" edge="1">
          <mxGeometry width="160" relative="1" as="geometry">
            <mxPoint x="480" y="220" as="sourcePoint" />
            <mxPoint x="330" y="350" as="targetPoint" />
            <Array as="points">
              <mxPoint x="512" y="225" />
            </Array>
          </mxGeometry>
        </mxCell>
      </root>
    </mxGraphModel>
  </diagram>
  <diagram id="QB1PtgTSZO0nfqmimcAO" name="包3">
    <mxGraphModel dx="2060" dy="1253" grid="1" gridSize="10" guides="1" tooltips="1" connect="1" arrows="1" fold="1" page="1" pageScale="1" pageWidth="2920" pageHeight="2900" math="0" shadow="0">
      <root>
        <mxCell id="0" />
        <mxCell id="1" parent="0" />
        <mxCell id="tcDBdZLxOp3T2Sm3V81d-1" value="" style="shape=folder;fontStyle=1;tabWidth=110;tabHeight=30;tabPosition=left;html=1;boundedLbl=1;labelInHeader=1;container=1;collapsible=0;fontSize=12;fillColor=#dae8fc;strokeColor=#6c8ebf;" parent="1" vertex="1">
          <mxGeometry x="110" y="190" width="150" height="100" as="geometry" />
        </mxCell>
        <mxCell id="tcDBdZLxOp3T2Sm3V81d-2" value="组织管理" style="html=1;strokeColor=none;resizeWidth=1;resizeHeight=1;fillColor=none;part=1;connectable=0;allowArrows=0;deletable=0;fontSize=12;" parent="tcDBdZLxOp3T2Sm3V81d-1" vertex="1">
          <mxGeometry width="150" height="70" relative="1" as="geometry">
            <mxPoint y="30" as="offset" />
          </mxGeometry>
        </mxCell>
        <mxCell id="tcDBdZLxOp3T2Sm3V81d-3" value="" style="shape=folder;fontStyle=1;tabWidth=110;tabHeight=30;tabPosition=left;html=1;boundedLbl=1;labelInHeader=1;container=1;collapsible=0;fontSize=12;fillColor=#dae8fc;strokeColor=#6c8ebf;" parent="1" vertex="1">
          <mxGeometry x="360" y="190" width="150" height="100" as="geometry" />
        </mxCell>
        <mxCell id="tcDBdZLxOp3T2Sm3V81d-4" value="租户管理" style="html=1;strokeColor=none;resizeWidth=1;resizeHeight=1;fillColor=none;part=1;connectable=0;allowArrows=0;deletable=0;fontSize=12;" parent="tcDBdZLxOp3T2Sm3V81d-3" vertex="1">
          <mxGeometry width="150" height="70" relative="1" as="geometry">
            <mxPoint y="30" as="offset" />
          </mxGeometry>
        </mxCell>
        <mxCell id="-zP9RhzcLvfTlZxNUi7I-1" value="" style="html=1;verticalAlign=bottom;labelBackgroundColor=none;endArrow=open;endFill=0;dashed=1;rounded=0;fontSize=12;entryX=0;entryY=0;entryDx=0;entryDy=65;entryPerimeter=0;exitX=0;exitY=0;exitDx=150;exitDy=65;exitPerimeter=0;" parent="1" source="tcDBdZLxOp3T2Sm3V81d-1" target="tcDBdZLxOp3T2Sm3V81d-3" edge="1">
          <mxGeometry width="160" relative="1" as="geometry">
            <mxPoint x="270" y="260" as="sourcePoint" />
            <mxPoint x="335.0000000000002" y="260" as="targetPoint" />
          </mxGeometry>
        </mxCell>
        <mxCell id="-zP9RhzcLvfTlZxNUi7I-3" value="被依赖方" style="text;html=1;strokeColor=none;fillColor=none;align=center;verticalAlign=middle;whiteSpace=wrap;rounded=0;" parent="1" vertex="1">
          <mxGeometry x="405" y="290" width="60" height="30" as="geometry" />
        </mxCell>
      </root>
    </mxGraphModel>
  </diagram>
</mxfile>
